<svg xmlns="http://www.w3.org/2000/svg" xmlns:xlink="http://www.w3.org/1999/xlink" width="500" zoomAndPan="magnify" viewBox="0 0 375 374.999991" height="500" preserveAspectRatio="xMidYMid meet" version="1.0"><defs><clipPath id="feaf73e273"><path d="M 0 23.164062 L 375 23.164062 L 375 351.664062 L 0 351.664062 Z M 0 23.164062 " clip-rule="nonzero"/></clipPath><clipPath id="a3154d73f3"><path d="M 112.5 142 L 262.5 142 L 262.5 262.5 L 112.5 262.5 Z M 112.5 142 " clip-rule="nonzero"/></clipPath><clipPath id="14ab2652da"><path d="M 112.5 112.5 L 163 112.5 L 163 178 L 112.5 178 Z M 112.5 112.5 " clip-rule="nonzero"/></clipPath><clipPath id="a6c07dfc75"><path d="M 212 112.5 L 262.5 112.5 L 262.5 178 L 212 178 Z M 212 112.5 " clip-rule="nonzero"/></clipPath></defs><g clip-path="url(#feaf73e273)"><path fill="#c59b64" d="M 280.683594 23.164062 L 94.316406 23.164062 L 0.00390625 187.414062 L 94.316406 351.664062 L 280.683594 351.664062 L 374.996094 187.414062 L 280.683594 23.164062 M 275.550781 342.765625 L 99.449219 342.765625 L 10.265625 187.414062 L 99.449219 32.0625 L 275.550781 32.0625 L 364.734375 187.414062 L 275.550781 342.765625 " fill-opacity="1" fill-rule="nonzero"/></g><g clip-path="url(#a3154d73f3)"><path fill="#000000" d="M 246.75 209.273438 C 247.15625 208.957031 247.546875 208.617188 247.921875 208.261719 C 248.292969 207.902344 248.644531 207.527344 248.980469 207.132812 C 249.3125 206.734375 249.625 206.324219 249.917969 205.898438 C 250.207031 205.472656 250.476562 205.03125 250.722656 204.574219 C 250.96875 204.121094 251.191406 203.652344 251.386719 203.175781 C 251.585938 202.699219 251.757812 202.210938 251.90625 201.714844 C 252.050781 201.222656 252.171875 200.71875 252.269531 200.210938 C 252.363281 199.703125 252.433594 199.191406 252.472656 198.675781 C 252.515625 198.160156 252.53125 197.644531 252.523438 197.128906 C 252.511719 196.609375 252.472656 196.097656 252.410156 195.582031 C 252.34375 195.070312 252.253906 194.5625 252.136719 194.058594 C 252.019531 193.554688 251.878906 193.058594 251.710938 192.570312 C 251.542969 192.082031 251.347656 191.601562 251.132812 191.132812 C 250.914062 190.664062 250.671875 190.207031 250.40625 189.761719 C 250.144531 189.320312 249.855469 188.890625 249.546875 188.476562 C 249.238281 188.0625 248.90625 187.664062 248.558594 187.285156 C 248.207031 186.902344 247.839844 186.542969 247.449219 186.199219 C 247.0625 185.859375 246.660156 185.539062 246.238281 185.238281 C 245.816406 184.9375 245.382812 184.660156 244.933594 184.402344 C 244.484375 184.148438 244.023438 183.917969 243.546875 183.710938 C 243.074219 183.5 242.589844 183.320312 242.097656 183.160156 C 241.605469 183.003906 241.109375 182.871094 240.601562 182.765625 C 240.097656 182.660156 239.585938 182.582031 239.070312 182.527344 C 238.558594 182.472656 238.042969 182.445312 237.523438 182.445312 C 237.007812 182.445312 236.492188 182.472656 235.976562 182.527344 C 235.464844 182.582031 234.953125 182.660156 234.449219 182.765625 C 233.941406 182.871094 233.441406 183.003906 232.949219 183.160156 C 232.457031 183.320312 231.976562 183.5 231.5 183.710938 C 231.027344 183.917969 230.566406 184.148438 230.117188 184.402344 C 229.667969 184.660156 229.234375 184.9375 228.8125 185.238281 C 228.390625 185.539062 227.988281 185.859375 227.597656 186.199219 C 227.210938 186.542969 226.84375 186.902344 226.492188 187.285156 C 226.140625 187.664062 225.8125 188.0625 225.503906 188.476562 C 225.195312 188.890625 224.90625 189.320312 224.640625 189.761719 C 224.378906 190.207031 224.136719 190.664062 223.917969 191.132812 C 223.699219 191.601562 223.507812 192.082031 223.339844 192.570312 C 223.171875 193.058594 223.03125 193.554688 222.914062 194.058594 C 222.796875 194.5625 222.707031 195.070312 222.640625 195.582031 C 222.578125 196.097656 222.539062 196.609375 222.527344 197.128906 C 222.515625 197.644531 222.53125 198.160156 222.574219 198.675781 C 222.617188 199.191406 222.6875 199.703125 222.78125 200.210938 C 222.878906 200.71875 223 201.222656 223.144531 201.714844 C 223.292969 202.210938 223.464844 202.699219 223.664062 203.175781 C 223.859375 203.652344 224.082031 204.121094 224.328125 204.574219 C 224.574219 205.03125 224.839844 205.472656 225.132812 205.898438 C 225.421875 206.324219 225.734375 206.734375 226.070312 207.132812 C 226.402344 207.527344 226.757812 207.902344 227.128906 208.261719 C 227.503906 208.617188 227.890625 208.957031 228.300781 209.273438 C 224.683594 210.710938 221.558594 212.859375 218.925781 215.726562 L 217.5 202.226562 C 217.464844 201.917969 217.378906 201.628906 217.234375 201.351562 C 217.09375 201.078125 216.90625 200.835938 216.675781 200.632812 C 216.445312 200.425781 216.1875 200.269531 215.898438 200.160156 C 215.609375 200.050781 215.308594 200 215 200 L 212.5 200 L 212.5 192.5 C 212.5 191.257812 212.40625 190.023438 212.21875 188.792969 C 212.035156 187.5625 211.757812 186.355469 211.394531 185.167969 C 211.027344 183.980469 210.574219 182.828125 210.039062 181.707031 C 209.5 180.585938 208.882812 179.511719 208.183594 178.484375 C 207.484375 177.457031 206.714844 176.484375 205.871094 175.570312 C 205.03125 174.660156 204.125 173.8125 203.15625 173.035156 C 202.1875 172.257812 201.164062 171.554688 200.09375 170.929688 C 199.019531 170.300781 197.90625 169.761719 196.75 169.300781 C 197.15625 168.980469 197.546875 168.644531 197.917969 168.285156 C 198.289062 167.925781 198.640625 167.546875 198.972656 167.152344 C 199.304688 166.757812 199.617188 166.347656 199.910156 165.917969 C 200.199219 165.492188 200.464844 165.050781 200.710938 164.597656 C 200.957031 164.140625 201.175781 163.675781 201.371094 163.199219 C 201.570312 162.71875 201.738281 162.234375 201.886719 161.738281 C 202.03125 161.242188 202.152344 160.742188 202.246094 160.234375 C 202.339844 159.726562 202.410156 159.214844 202.453125 158.699219 C 202.492188 158.183594 202.507812 157.667969 202.496094 157.152344 C 202.484375 156.636719 202.445312 156.121094 202.382812 155.609375 C 202.316406 155.097656 202.226562 154.589844 202.109375 154.085938 C 201.992188 153.582031 201.847656 153.085938 201.679688 152.597656 C 201.511719 152.109375 201.316406 151.632812 201.101562 151.164062 C 200.882812 150.695312 200.640625 150.238281 200.375 149.796875 C 200.109375 149.351562 199.824219 148.925781 199.515625 148.511719 C 199.207031 148.097656 198.875 147.699219 198.523438 147.320312 C 198.175781 146.941406 197.804688 146.582031 197.417969 146.238281 C 197.03125 145.898438 196.628906 145.578125 196.207031 145.277344 C 195.785156 144.976562 195.351562 144.699219 194.902344 144.445312 C 194.453125 144.191406 193.992188 143.960938 193.519531 143.75 C 193.046875 143.542969 192.5625 143.363281 192.070312 143.203125 C 191.578125 143.046875 191.078125 142.914062 190.574219 142.808594 C 190.070312 142.703125 189.558594 142.625 189.046875 142.570312 C 188.53125 142.519531 188.015625 142.492188 187.5 142.492188 C 186.984375 142.492188 186.46875 142.519531 185.953125 142.570312 C 185.441406 142.625 184.929688 142.703125 184.425781 142.808594 C 183.921875 142.914062 183.421875 143.046875 182.929688 143.203125 C 182.4375 143.363281 181.953125 143.542969 181.480469 143.75 C 181.007812 143.960938 180.546875 144.191406 180.097656 144.445312 C 179.648438 144.699219 179.214844 144.976562 178.792969 145.277344 C 178.371094 145.578125 177.96875 145.898438 177.582031 146.238281 C 177.195312 146.582031 176.824219 146.941406 176.476562 147.320312 C 176.125 147.699219 175.792969 148.097656 175.484375 148.511719 C 175.175781 148.925781 174.890625 149.351562 174.625 149.796875 C 174.359375 150.238281 174.117188 150.695312 173.898438 151.164062 C 173.683594 151.632812 173.488281 152.109375 173.320312 152.597656 C 173.152344 153.085938 173.007812 153.582031 172.890625 154.085938 C 172.773438 154.589844 172.683594 155.097656 172.617188 155.609375 C 172.554688 156.121094 172.515625 156.636719 172.503906 157.152344 C 172.492188 157.667969 172.507812 158.183594 172.546875 158.699219 C 172.589844 159.214844 172.660156 159.726562 172.753906 160.234375 C 172.847656 160.742188 172.96875 161.242188 173.113281 161.738281 C 173.261719 162.234375 173.429688 162.71875 173.628906 163.199219 C 173.824219 163.675781 174.042969 164.140625 174.289062 164.597656 C 174.535156 165.050781 174.800781 165.492188 175.089844 165.917969 C 175.382812 166.347656 175.695312 166.757812 176.027344 167.152344 C 176.359375 167.546875 176.710938 167.925781 177.082031 168.285156 C 177.453125 168.644531 177.84375 168.980469 178.25 169.300781 C 177.09375 169.761719 175.980469 170.300781 174.90625 170.929688 C 173.835938 171.554688 172.8125 172.257812 171.84375 173.035156 C 170.875 173.8125 169.96875 174.660156 169.128906 175.570312 C 168.285156 176.484375 167.515625 177.457031 166.816406 178.484375 C 166.117188 179.511719 165.5 180.585938 164.960938 181.707031 C 164.425781 182.828125 163.972656 183.980469 163.605469 185.167969 C 163.242188 186.355469 162.964844 187.5625 162.78125 188.792969 C 162.59375 190.023438 162.5 191.257812 162.5 192.5 L 162.5 200 L 160 200 C 159.6875 200 159.386719 200.054688 159.097656 200.164062 C 158.808594 200.273438 158.546875 200.433594 158.316406 200.640625 C 158.082031 200.851562 157.898438 201.09375 157.757812 201.371094 C 157.617188 201.648438 157.53125 201.941406 157.5 202.25 L 156.148438 215.851562 C 153.535156 212.910156 150.394531 210.726562 146.726562 209.300781 C 147.132812 208.980469 147.523438 208.644531 147.894531 208.285156 C 148.265625 207.925781 148.617188 207.550781 148.953125 207.15625 C 149.285156 206.761719 149.597656 206.347656 149.886719 205.921875 C 150.179688 205.496094 150.445312 205.054688 150.691406 204.597656 C 150.9375 204.144531 151.15625 203.675781 151.355469 203.199219 C 151.550781 202.722656 151.722656 202.234375 151.871094 201.738281 C 152.015625 201.246094 152.136719 200.742188 152.234375 200.234375 C 152.328125 199.726562 152.394531 199.214844 152.4375 198.699219 C 152.480469 198.183594 152.496094 197.667969 152.484375 197.152344 C 152.472656 196.636719 152.433594 196.121094 152.371094 195.609375 C 152.304688 195.097656 152.214844 194.589844 152.097656 194.085938 C 151.980469 193.582031 151.839844 193.085938 151.667969 192.597656 C 151.5 192.109375 151.308594 191.628906 151.089844 191.160156 C 150.871094 190.691406 150.632812 190.234375 150.367188 189.792969 C 150.101562 189.347656 149.816406 188.921875 149.503906 188.507812 C 149.195312 188.09375 148.867188 187.695312 148.515625 187.316406 C 148.167969 186.933594 147.796875 186.574219 147.410156 186.234375 C 147.023438 185.890625 146.617188 185.570312 146.199219 185.269531 C 145.777344 184.96875 145.339844 184.691406 144.890625 184.4375 C 144.441406 184.183594 143.980469 183.949219 143.507812 183.742188 C 143.035156 183.535156 142.550781 183.351562 142.058594 183.195312 C 141.566406 183.039062 141.070312 182.90625 140.5625 182.800781 C 140.058594 182.695312 139.546875 182.613281 139.035156 182.5625 C 138.519531 182.507812 138.003906 182.480469 137.488281 182.480469 C 136.972656 182.480469 136.457031 182.507812 135.941406 182.5625 C 135.425781 182.613281 134.917969 182.695312 134.410156 182.800781 C 133.90625 182.90625 133.40625 183.039062 132.914062 183.195312 C 132.421875 183.351562 131.941406 183.535156 131.464844 183.742188 C 130.992188 183.949219 130.53125 184.183594 130.082031 184.4375 C 129.632812 184.691406 129.199219 184.96875 128.777344 185.269531 C 128.355469 185.570312 127.953125 185.890625 127.566406 186.234375 C 127.175781 186.574219 126.808594 186.933594 126.457031 187.316406 C 126.109375 187.695312 125.777344 188.09375 125.46875 188.507812 C 125.160156 188.921875 124.875 189.347656 124.609375 189.792969 C 124.34375 190.234375 124.101562 190.691406 123.882812 191.160156 C 123.667969 191.628906 123.472656 192.109375 123.304688 192.597656 C 123.136719 193.085938 122.996094 193.582031 122.878906 194.085938 C 122.761719 194.589844 122.667969 195.097656 122.605469 195.609375 C 122.539062 196.121094 122.503906 196.636719 122.492188 197.152344 C 122.480469 197.667969 122.496094 198.183594 122.535156 198.699219 C 122.578125 199.214844 122.648438 199.726562 122.742188 200.234375 C 122.835938 200.742188 122.957031 201.246094 123.105469 201.738281 C 123.25 202.234375 123.421875 202.722656 123.621094 203.199219 C 123.816406 203.675781 124.039062 204.144531 124.28125 204.597656 C 124.527344 205.054688 124.796875 205.496094 125.085938 205.921875 C 125.378906 206.347656 125.691406 206.761719 126.023438 207.15625 C 126.355469 207.550781 126.707031 207.925781 127.082031 208.285156 C 127.453125 208.644531 127.84375 208.980469 128.25 209.300781 C 127.09375 209.761719 125.980469 210.300781 124.90625 210.929688 C 123.835938 211.554688 122.8125 212.257812 121.84375 213.035156 C 120.875 213.8125 119.96875 214.660156 119.128906 215.570312 C 118.285156 216.484375 117.515625 217.457031 116.816406 218.484375 C 116.117188 219.511719 115.5 220.585938 114.960938 221.707031 C 114.425781 222.828125 113.972656 223.980469 113.605469 225.167969 C 113.242188 226.355469 112.964844 227.5625 112.78125 228.792969 C 112.59375 230.023438 112.5 231.257812 112.5 232.5 L 112.5 260 C 112.5 260.332031 112.5625 260.648438 112.691406 260.957031 C 112.816406 261.261719 112.996094 261.535156 113.230469 261.769531 C 113.464844 262.003906 113.738281 262.183594 114.042969 262.308594 C 114.347656 262.4375 114.667969 262.5 115 262.5 L 260 262.5 C 260.332031 262.5 260.648438 262.4375 260.957031 262.308594 C 261.261719 262.183594 261.535156 262.003906 261.769531 261.769531 C 262.003906 261.535156 262.183594 261.261719 262.308594 260.957031 C 262.4375 260.648438 262.5 260.332031 262.5 260 L 262.5 232.5 C 262.5 231.257812 262.40625 230.019531 262.222656 228.789062 C 262.039062 227.558594 261.761719 226.351562 261.398438 225.160156 C 261.03125 223.972656 260.582031 222.816406 260.042969 221.695312 C 259.507812 220.574219 258.890625 219.5 258.191406 218.46875 C 257.492188 217.441406 256.722656 216.46875 255.878906 215.554688 C 255.035156 214.640625 254.128906 213.792969 253.160156 213.011719 C 252.191406 212.234375 251.167969 211.53125 250.09375 210.90625 C 249.019531 210.277344 247.90625 209.734375 246.75 209.273438 Z M 227.5 197.5 C 227.5 196.84375 227.5625 196.191406 227.691406 195.550781 C 227.820312 194.90625 228.011719 194.28125 228.261719 193.671875 C 228.511719 193.066406 228.820312 192.488281 229.183594 191.945312 C 229.550781 191.398438 229.964844 190.894531 230.429688 190.429688 C 230.894531 189.964844 231.398438 189.550781 231.945312 189.183594 C 232.488281 188.820312 233.066406 188.511719 233.671875 188.261719 C 234.28125 188.011719 234.90625 187.820312 235.550781 187.691406 C 236.191406 187.5625 236.84375 187.5 237.5 187.5 C 238.15625 187.5 238.808594 187.5625 239.449219 187.691406 C 240.09375 187.820312 240.71875 188.011719 241.328125 188.261719 C 241.933594 188.511719 242.507812 188.820312 243.054688 189.183594 C 243.601562 189.550781 244.105469 189.964844 244.570312 190.429688 C 245.035156 190.894531 245.449219 191.398438 245.816406 191.945312 C 246.179688 192.488281 246.488281 193.066406 246.738281 193.671875 C 246.988281 194.28125 247.179688 194.90625 247.308594 195.550781 C 247.4375 196.191406 247.5 196.84375 247.5 197.5 C 247.5 198.15625 247.4375 198.808594 247.308594 199.449219 C 247.179688 200.09375 246.988281 200.71875 246.738281 201.328125 C 246.488281 201.933594 246.179688 202.507812 245.816406 203.054688 C 245.449219 203.601562 245.035156 204.105469 244.570312 204.570312 C 244.105469 205.035156 243.601562 205.449219 243.054688 205.816406 C 242.507812 206.179688 241.933594 206.488281 241.328125 206.738281 C 240.71875 206.988281 240.09375 207.179688 239.449219 207.308594 C 238.808594 207.4375 238.15625 207.5 237.5 207.5 C 236.84375 207.5 236.191406 207.4375 235.550781 207.308594 C 234.90625 207.179688 234.28125 206.988281 233.671875 206.738281 C 233.066406 206.488281 232.488281 206.179688 231.945312 205.816406 C 231.398438 205.449219 230.894531 205.035156 230.429688 204.570312 C 229.964844 204.105469 229.550781 203.601562 229.183594 203.054688 C 228.820312 202.507812 228.511719 201.933594 228.261719 201.328125 C 228.011719 200.71875 227.820312 200.09375 227.691406 199.449219 C 227.5625 198.808594 227.5 198.15625 227.5 197.5 Z M 177.5 157.5 C 177.5 156.84375 177.5625 156.191406 177.691406 155.550781 C 177.820312 154.90625 178.011719 154.28125 178.261719 153.671875 C 178.511719 153.066406 178.820312 152.488281 179.183594 151.945312 C 179.550781 151.398438 179.964844 150.894531 180.429688 150.429688 C 180.894531 149.964844 181.398438 149.550781 181.945312 149.183594 C 182.488281 148.820312 183.066406 148.511719 183.671875 148.261719 C 184.28125 148.011719 184.90625 147.820312 185.550781 147.691406 C 186.191406 147.5625 186.84375 147.5 187.5 147.5 C 188.15625 147.5 188.808594 147.5625 189.449219 147.691406 C 190.09375 147.820312 190.71875 148.011719 191.328125 148.261719 C 191.933594 148.511719 192.507812 148.820312 193.054688 149.183594 C 193.601562 149.550781 194.105469 149.964844 194.570312 150.429688 C 195.035156 150.894531 195.449219 151.398438 195.816406 151.945312 C 196.179688 152.488281 196.488281 153.066406 196.738281 153.671875 C 196.988281 154.28125 197.179688 154.90625 197.308594 155.550781 C 197.4375 156.191406 197.5 156.84375 197.5 157.5 C 197.5 158.15625 197.4375 158.808594 197.308594 159.449219 C 197.179688 160.09375 196.988281 160.71875 196.738281 161.328125 C 196.488281 161.933594 196.179688 162.507812 195.816406 163.054688 C 195.449219 163.601562 195.035156 164.105469 194.570312 164.570312 C 194.105469 165.035156 193.601562 165.449219 193.054688 165.816406 C 192.507812 166.179688 191.933594 166.488281 191.328125 166.738281 C 190.71875 166.988281 190.09375 167.179688 189.449219 167.308594 C 188.808594 167.4375 188.15625 167.5 187.5 167.5 C 186.84375 167.5 186.191406 167.4375 185.550781 167.308594 C 184.90625 167.179688 184.28125 166.988281 183.671875 166.738281 C 183.066406 166.488281 182.488281 166.179688 181.945312 165.816406 C 181.398438 165.449219 180.894531 165.035156 180.429688 164.570312 C 179.964844 164.105469 179.550781 163.601562 179.183594 163.054688 C 178.820312 162.507812 178.511719 161.933594 178.261719 161.328125 C 178.011719 160.71875 177.820312 160.09375 177.691406 159.449219 C 177.5625 158.808594 177.5 158.15625 177.5 157.5 Z M 167.5 192.5 C 167.5 191.84375 167.53125 191.191406 167.597656 190.539062 C 167.660156 189.886719 167.757812 189.242188 167.882812 188.597656 C 168.011719 187.957031 168.171875 187.320312 168.359375 186.695312 C 168.550781 186.066406 168.773438 185.453125 169.023438 184.847656 C 169.273438 184.242188 169.554688 183.648438 169.863281 183.070312 C 170.171875 182.496094 170.507812 181.933594 170.871094 181.386719 C 171.234375 180.84375 171.625 180.320312 172.039062 179.8125 C 172.457031 179.304688 172.894531 178.820312 173.359375 178.359375 C 173.820312 177.894531 174.304688 177.457031 174.8125 177.039062 C 175.320312 176.625 175.84375 176.234375 176.386719 175.871094 C 176.933594 175.507812 177.496094 175.171875 178.070312 174.863281 C 178.648438 174.554688 179.242188 174.273438 179.847656 174.023438 C 180.453125 173.773438 181.066406 173.550781 181.695312 173.359375 C 182.320312 173.171875 182.957031 173.011719 183.597656 172.882812 C 184.242188 172.757812 184.886719 172.660156 185.539062 172.597656 C 186.191406 172.53125 186.84375 172.5 187.5 172.5 C 188.15625 172.5 188.808594 172.53125 189.460938 172.597656 C 190.113281 172.660156 190.757812 172.757812 191.402344 172.882812 C 192.042969 173.011719 192.679688 173.171875 193.304688 173.359375 C 193.933594 173.550781 194.546875 173.773438 195.152344 174.023438 C 195.757812 174.273438 196.351562 174.554688 196.929688 174.863281 C 197.503906 175.171875 198.066406 175.507812 198.613281 175.871094 C 199.15625 176.234375 199.679688 176.625 200.1875 177.039062 C 200.695312 177.457031 201.179688 177.894531 201.640625 178.359375 C 202.105469 178.820312 202.542969 179.304688 202.960938 179.8125 C 203.375 180.320312 203.765625 180.84375 204.128906 181.386719 C 204.492188 181.933594 204.828125 182.496094 205.136719 183.070312 C 205.445312 183.648438 205.726562 184.242188 205.976562 184.847656 C 206.226562 185.453125 206.449219 186.066406 206.640625 186.695312 C 206.828125 187.320312 206.988281 187.957031 207.117188 188.597656 C 207.242188 189.242188 207.339844 189.886719 207.402344 190.539062 C 207.46875 191.191406 207.5 191.84375 207.5 192.5 L 207.5 200 L 203.148438 200 L 205 187.875 C 205.054688 187.511719 205.03125 187.15625 204.929688 186.804688 C 204.828125 186.449219 204.65625 186.136719 204.414062 185.859375 C 204.175781 185.582031 203.886719 185.371094 203.550781 185.21875 C 203.21875 185.070312 202.867188 184.996094 202.5 185 L 172.5 185 C 172.132812 184.996094 171.78125 185.070312 171.449219 185.21875 C 171.113281 185.371094 170.824219 185.582031 170.585938 185.859375 C 170.34375 186.136719 170.171875 186.449219 170.070312 186.804688 C 169.96875 187.15625 169.945312 187.511719 170 187.875 L 171.851562 200 L 167.5 200 Z M 199.601562 190 L 197.351562 205 L 177.648438 205 L 175.398438 190 Z M 172.5 205 L 172.925781 207.875 C 172.96875 208.171875 173.066406 208.453125 173.214844 208.71875 C 173.359375 208.980469 173.546875 209.210938 173.777344 209.40625 C 174.007812 209.601562 174.265625 209.75 174.546875 209.851562 C 174.832031 209.953125 175.125 210.003906 175.425781 210 L 199.425781 210 C 199.726562 210.003906 200.019531 209.953125 200.300781 209.851562 C 200.585938 209.75 200.84375 209.601562 201.074219 209.40625 C 201.300781 209.210938 201.492188 208.980469 201.636719 208.71875 C 201.785156 208.453125 201.878906 208.171875 201.925781 207.875 L 202.5 205 L 212.75 205 L 214.675781 223.074219 L 215.550781 233.074219 L 204.074219 237.675781 C 203.597656 237.863281 203.21875 238.171875 202.929688 238.59375 C 202.644531 239.019531 202.5 239.488281 202.5 240 L 202.5 247.5 C 202.5 248.269531 202.792969 248.902344 203.375 249.398438 C 203.84375 249.800781 204.382812 250 205 250 L 205.375 250 L 216.875 248.226562 L 217.675781 257.5 L 157.324219 257.5 L 158.125 248.199219 L 169.625 249.976562 L 170 249.976562 C 170.617188 249.976562 171.15625 249.773438 171.625 249.375 C 172.199219 248.882812 172.492188 248.257812 172.5 247.5 L 172.5 240 C 172.5 239.488281 172.355469 239.019531 172.070312 238.59375 C 171.78125 238.171875 171.402344 237.863281 170.925781 237.675781 L 159.476562 233.101562 L 162.273438 205 Z M 127.5 197.5 C 127.5 196.84375 127.5625 196.191406 127.691406 195.550781 C 127.820312 194.90625 128.011719 194.28125 128.261719 193.671875 C 128.511719 193.066406 128.820312 192.488281 129.183594 191.945312 C 129.550781 191.398438 129.964844 190.894531 130.429688 190.429688 C 130.894531 189.964844 131.398438 189.550781 131.945312 189.183594 C 132.492188 188.820312 133.066406 188.511719 133.671875 188.261719 C 134.28125 188.011719 134.90625 187.820312 135.550781 187.691406 C 136.191406 187.5625 136.84375 187.5 137.5 187.5 C 138.15625 187.5 138.808594 187.5625 139.449219 187.691406 C 140.09375 187.820312 140.71875 188.011719 141.328125 188.261719 C 141.933594 188.511719 142.507812 188.820312 143.054688 189.183594 C 143.601562 189.550781 144.105469 189.964844 144.570312 190.429688 C 145.035156 190.894531 145.449219 191.398438 145.816406 191.945312 C 146.179688 192.488281 146.488281 193.066406 146.738281 193.671875 C 146.988281 194.28125 147.179688 194.90625 147.308594 195.550781 C 147.4375 196.191406 147.5 196.84375 147.5 197.5 C 147.5 198.15625 147.4375 198.808594 147.308594 199.449219 C 147.179688 200.09375 146.988281 200.71875 146.738281 201.328125 C 146.488281 201.933594 146.179688 202.507812 145.816406 203.054688 C 145.449219 203.601562 145.035156 204.105469 144.570312 204.570312 C 144.105469 205.035156 143.601562 205.449219 143.054688 205.816406 C 142.507812 206.179688 141.933594 206.488281 141.328125 206.738281 C 140.71875 206.988281 140.09375 207.179688 139.449219 207.308594 C 138.808594 207.4375 138.15625 207.5 137.5 207.5 C 136.84375 207.5 136.191406 207.4375 135.550781 207.308594 C 134.90625 207.179688 134.28125 206.988281 133.671875 206.738281 C 133.066406 206.488281 132.492188 206.179688 131.945312 205.816406 C 131.398438 205.449219 130.894531 205.035156 130.429688 204.570312 C 129.964844 204.105469 129.550781 203.601562 129.183594 203.054688 C 128.820312 202.507812 128.511719 201.933594 128.261719 201.328125 C 128.011719 200.71875 127.820312 200.09375 127.691406 199.449219 C 127.5625 198.808594 127.5 198.15625 127.5 197.5 Z M 117.5 232.5 C 117.5 231.84375 117.53125 231.191406 117.597656 230.539062 C 117.660156 229.886719 117.757812 229.242188 117.882812 228.597656 C 118.011719 227.957031 118.171875 227.320312 118.359375 226.695312 C 118.550781 226.066406 118.773438 225.453125 119.023438 224.847656 C 119.273438 224.242188 119.554688 223.648438 119.863281 223.070312 C 120.171875 222.496094 120.507812 221.933594 120.871094 221.386719 C 121.234375 220.84375 121.625 220.320312 122.039062 219.8125 C 122.457031 219.304688 122.894531 218.820312 123.359375 218.359375 C 123.820312 217.894531 124.304688 217.457031 124.8125 217.039062 C 125.320312 216.625 125.84375 216.234375 126.386719 215.871094 C 126.933594 215.507812 127.496094 215.171875 128.070312 214.863281 C 128.648438 214.554688 129.242188 214.273438 129.847656 214.023438 C 130.453125 213.773438 131.066406 213.550781 131.695312 213.359375 C 132.320312 213.171875 132.957031 213.011719 133.597656 212.882812 C 134.242188 212.757812 134.886719 212.660156 135.539062 212.597656 C 136.191406 212.53125 136.84375 212.5 137.5 212.5 C 138.425781 212.5 139.347656 212.5625 140.261719 212.691406 C 141.179688 212.820312 142.082031 213.007812 142.972656 213.261719 C 143.859375 213.515625 144.730469 213.828125 145.574219 214.203125 C 146.421875 214.574219 147.238281 215.003906 148.023438 215.492188 C 148.8125 215.980469 149.5625 216.519531 150.273438 217.109375 C 150.984375 217.699219 151.652344 218.335938 152.277344 219.019531 C 152.898438 219.703125 153.472656 220.425781 153.996094 221.1875 C 154.519531 221.953125 154.988281 222.746094 155.398438 223.574219 L 154.648438 231.074219 L 147.5 228.300781 L 147.5 222.5 L 142.5 222.5 L 142.5 230 C 142.5 230.511719 142.644531 230.980469 142.929688 231.40625 C 143.21875 231.828125 143.597656 232.136719 144.074219 232.324219 L 167.5 241.699219 L 167.5 244.574219 L 139.148438 240.226562 L 134.726562 231.375 L 130.273438 233.625 L 135.273438 243.625 C 135.457031 243.984375 135.710938 244.285156 136.035156 244.523438 C 136.363281 244.761719 136.726562 244.914062 137.125 244.976562 L 153.175781 247.476562 L 152.300781 257.476562 L 117.5 257.476562 Z M 257.5 257.5 L 222.699219 257.5 L 221.824219 247.5 L 237.875 245 C 238.273438 244.9375 238.636719 244.789062 238.964844 244.550781 C 239.289062 244.3125 239.542969 244.011719 239.726562 243.648438 L 244.726562 233.648438 L 240.273438 231.398438 L 235.851562 240.25 L 207.5 244.574219 L 207.5 241.699219 L 230.925781 232.324219 C 231.402344 232.136719 231.78125 231.828125 232.070312 231.40625 C 232.355469 230.980469 232.5 230.511719 232.5 230 L 232.5 222.5 L 227.5 222.5 L 227.5 228.300781 L 220.398438 231.148438 L 219.726562 223.398438 C 220.140625 222.585938 220.613281 221.800781 221.136719 221.050781 C 221.660156 220.300781 222.230469 219.589844 222.855469 218.917969 C 223.476562 218.246094 224.140625 217.621094 224.847656 217.039062 C 225.554688 216.457031 226.300781 215.929688 227.078125 215.449219 C 227.859375 214.972656 228.667969 214.550781 229.507812 214.179688 C 230.347656 213.8125 231.207031 213.503906 232.085938 213.257812 C 232.96875 213.007812 233.859375 212.820312 234.765625 212.691406 C 235.671875 212.566406 236.585938 212.5 237.5 212.5 C 238.15625 212.5 238.808594 212.53125 239.460938 212.597656 C 240.113281 212.660156 240.757812 212.757812 241.402344 212.882812 C 242.042969 213.011719 242.679688 213.171875 243.304688 213.359375 C 243.933594 213.550781 244.546875 213.773438 245.152344 214.023438 C 245.757812 214.273438 246.351562 214.554688 246.929688 214.863281 C 247.503906 215.171875 248.066406 215.507812 248.613281 215.871094 C 249.15625 216.234375 249.679688 216.625 250.1875 217.039062 C 250.695312 217.457031 251.179688 217.894531 251.640625 218.359375 C 252.105469 218.820312 252.542969 219.304688 252.960938 219.8125 C 253.375 220.320312 253.765625 220.84375 254.128906 221.386719 C 254.492188 221.933594 254.828125 222.496094 255.136719 223.070312 C 255.445312 223.648438 255.726562 224.242188 255.976562 224.847656 C 256.226562 225.453125 256.449219 226.066406 256.640625 226.695312 C 256.828125 227.320312 256.988281 227.957031 257.117188 228.597656 C 257.242188 229.242188 257.339844 229.886719 257.402344 230.539062 C 257.46875 231.191406 257.5 231.84375 257.5 232.5 Z M 257.5 257.5 " fill-opacity="1" fill-rule="nonzero"/></g><g clip-path="url(#14ab2652da)"><path fill="#000000" d="M 115 167.5 L 128.75 167.5 L 135.5 176.5 C 135.617188 176.65625 135.75 176.796875 135.898438 176.917969 C 136.046875 177.042969 136.207031 177.148438 136.382812 177.234375 C 136.554688 177.324219 136.738281 177.386719 136.925781 177.433594 C 137.113281 177.476562 137.304688 177.5 137.5 177.5 C 137.695312 177.5 137.886719 177.476562 138.074219 177.433594 C 138.261719 177.386719 138.445312 177.324219 138.617188 177.234375 C 138.792969 177.148438 138.953125 177.042969 139.101562 176.917969 C 139.25 176.796875 139.382812 176.65625 139.5 176.5 L 146.25 167.5 L 160 167.5 C 160.332031 167.5 160.652344 167.4375 160.957031 167.308594 C 161.261719 167.183594 161.535156 167.003906 161.769531 166.769531 C 162.003906 166.535156 162.183594 166.261719 162.308594 165.957031 C 162.4375 165.652344 162.5 165.332031 162.5 165 L 162.5 115 C 162.5 114.667969 162.4375 114.347656 162.308594 114.042969 C 162.183594 113.738281 162.003906 113.464844 161.769531 113.230469 C 161.535156 112.996094 161.261719 112.816406 160.957031 112.691406 C 160.652344 112.5625 160.332031 112.5 160 112.5 L 115 112.5 C 114.667969 112.5 114.347656 112.5625 114.042969 112.691406 C 113.738281 112.816406 113.464844 112.996094 113.230469 113.230469 C 112.996094 113.464844 112.816406 113.738281 112.691406 114.042969 C 112.5625 114.347656 112.5 114.667969 112.5 115 L 112.5 165 C 112.5 165.332031 112.5625 165.652344 112.691406 165.957031 C 112.816406 166.261719 112.996094 166.535156 113.230469 166.769531 C 113.464844 167.003906 113.738281 167.183594 114.042969 167.308594 C 114.347656 167.4375 114.667969 167.5 115 167.5 Z M 117.5 117.5 L 157.5 117.5 L 157.5 162.5 L 145 162.5 C 144.605469 162.5 144.234375 162.589844 143.882812 162.765625 C 143.53125 162.941406 143.234375 163.183594 143 163.5 L 137.5 170.824219 L 132 163.5 C 131.765625 163.183594 131.46875 162.941406 131.117188 162.765625 C 130.765625 162.589844 130.394531 162.5 130 162.5 L 117.5 162.5 Z M 117.5 117.5 " fill-opacity="1" fill-rule="nonzero"/></g><path fill="#000000" d="M 122.5 152.5 L 152.5 152.5 L 152.5 157.5 L 122.5 157.5 Z M 122.5 152.5 " fill-opacity="1" fill-rule="nonzero"/><path fill="#000000" d="M 122.5 142.5 L 152.5 142.5 L 152.5 147.5 L 122.5 147.5 Z M 122.5 142.5 " fill-opacity="1" fill-rule="nonzero"/><path fill="#000000" d="M 122.5 132.5 L 152.5 132.5 L 152.5 137.5 L 122.5 137.5 Z M 122.5 132.5 " fill-opacity="1" fill-rule="nonzero"/><path fill="#000000" d="M 147.5 122.5 L 152.5 122.5 L 152.5 127.5 L 147.5 127.5 Z M 147.5 122.5 " fill-opacity="1" fill-rule="nonzero"/><path fill="#000000" d="M 132.5 122.5 L 142.5 122.5 L 142.5 127.5 L 132.5 127.5 Z M 132.5 122.5 " fill-opacity="1" fill-rule="nonzero"/><path fill="#000000" d="M 122.5 122.5 L 127.5 122.5 L 127.5 127.5 L 122.5 127.5 Z M 122.5 122.5 " fill-opacity="1" fill-rule="nonzero"/><g clip-path="url(#a6c07dfc75)"><path fill="#000000" d="M 260 112.5 L 215 112.5 C 214.667969 112.5 214.347656 112.5625 214.042969 112.691406 C 213.738281 112.816406 213.464844 112.996094 213.230469 113.230469 C 212.996094 113.464844 212.816406 113.738281 212.691406 114.042969 C 212.5625 114.347656 212.5 114.667969 212.5 115 L 212.5 165 C 212.5 165.332031 212.5625 165.652344 212.691406 165.957031 C 212.816406 166.261719 212.996094 166.535156 213.230469 166.769531 C 213.464844 167.003906 213.738281 167.183594 214.042969 167.308594 C 214.347656 167.4375 214.667969 167.5 215 167.5 L 228.75 167.5 L 235.5 176.5 C 235.617188 176.65625 235.75 176.796875 235.898438 176.917969 C 236.046875 177.042969 236.207031 177.148438 236.382812 177.234375 C 236.554688 177.324219 236.738281 177.386719 236.925781 177.433594 C 237.113281 177.476562 237.304688 177.5 237.5 177.5 C 237.695312 177.5 237.886719 177.476562 238.074219 177.433594 C 238.261719 177.386719 238.445312 177.324219 238.617188 177.234375 C 238.792969 177.148438 238.953125 177.042969 239.101562 176.917969 C 239.25 176.796875 239.382812 176.65625 239.5 176.5 L 246.25 167.5 L 260 167.5 C 260.332031 167.5 260.648438 167.4375 260.957031 167.308594 C 261.261719 167.183594 261.535156 167.003906 261.769531 166.769531 C 262.003906 166.535156 262.183594 166.261719 262.308594 165.957031 C 262.4375 165.652344 262.5 165.332031 262.5 165 L 262.5 115 C 262.5 114.667969 262.4375 114.347656 262.308594 114.042969 C 262.183594 113.738281 262.003906 113.464844 261.769531 113.230469 C 261.535156 112.996094 261.261719 112.816406 260.957031 112.691406 C 260.648438 112.5625 260.332031 112.5 260 112.5 Z M 257.5 162.5 L 245 162.5 C 244.605469 162.5 244.234375 162.589844 243.882812 162.765625 C 243.53125 162.941406 243.234375 163.183594 243 163.5 L 237.5 170.824219 L 232 163.5 C 231.765625 163.183594 231.46875 162.941406 231.117188 162.765625 C 230.765625 162.589844 230.394531 162.5 230 162.5 L 217.5 162.5 L 217.5 117.5 L 257.5 117.5 Z M 257.5 162.5 " fill-opacity="1" fill-rule="nonzero"/></g><path fill="#000000" d="M 222.5 122.5 L 252.5 122.5 L 252.5 127.5 L 222.5 127.5 Z M 222.5 122.5 " fill-opacity="1" fill-rule="nonzero"/><path fill="#000000" d="M 222.5 132.5 L 252.5 132.5 L 252.5 137.5 L 222.5 137.5 Z M 222.5 132.5 " fill-opacity="1" fill-rule="nonzero"/><path fill="#000000" d="M 222.5 142.5 L 252.5 142.5 L 252.5 147.5 L 222.5 147.5 Z M 222.5 142.5 " fill-opacity="1" fill-rule="nonzero"/><path fill="#000000" d="M 222.5 152.5 L 227.5 152.5 L 227.5 157.5 L 222.5 157.5 Z M 222.5 152.5 " fill-opacity="1" fill-rule="nonzero"/><path fill="#000000" d="M 232.5 152.5 L 242.5 152.5 L 242.5 157.5 L 232.5 157.5 Z M 232.5 152.5 " fill-opacity="1" fill-rule="nonzero"/><path fill="#000000" d="M 247.5 152.5 L 252.5 152.5 L 252.5 157.5 L 247.5 157.5 Z M 247.5 152.5 " fill-opacity="1" fill-rule="nonzero"/></svg>