<svg xmlns="http://www.w3.org/2000/svg" xmlns:xlink="http://www.w3.org/1999/xlink" width="500" zoomAndPan="magnify" viewBox="0 0 375 374.999991" height="500" preserveAspectRatio="xMidYMid meet" version="1.0"><defs><clipPath id="be5e6f4374"><path d="M 0 23.164062 L 375 23.164062 L 375 351.664062 L 0 351.664062 Z M 0 23.164062 " clip-rule="nonzero"/></clipPath><clipPath id="366b3d0fb2"><path d="M 122 255 L 253 255 L 253 262.5 L 122 262.5 Z M 122 255 " clip-rule="nonzero"/></clipPath><clipPath id="061d4b2fdc"><path d="M 179 112.5 L 196 112.5 L 196 133 L 179 133 Z M 179 112.5 " clip-rule="nonzero"/></clipPath><clipPath id="2137aa0a29"><path d="M 112.5 134 L 182 134 L 182 221 L 112.5 221 Z M 112.5 134 " clip-rule="nonzero"/></clipPath><clipPath id="8b5b438bc0"><path d="M 193 134 L 262.5 134 L 262.5 221 L 193 221 Z M 193 134 " clip-rule="nonzero"/></clipPath></defs><g clip-path="url(#be5e6f4374)"><path fill="#c59b64" d="M 280.683594 23.164062 L 94.316406 23.164062 L 0.00390625 187.414062 L 94.316406 351.664062 L 280.683594 351.664062 L 374.996094 187.414062 L 280.683594 23.164062 M 275.550781 342.765625 L 99.449219 342.765625 L 10.265625 187.414062 L 99.449219 32.0625 L 275.550781 32.0625 L 364.734375 187.414062 L 275.550781 342.765625 " fill-opacity="1" fill-rule="nonzero"/></g><g clip-path="url(#366b3d0fb2)"><path fill="#000000" d="M 246.359375 255.84375 L 128.632812 255.84375 C 126.316406 255.84375 124.246094 257.398438 123.597656 259.625 L 122.761719 262.5 L 252.230469 262.5 L 251.394531 259.625 C 250.746094 257.398438 248.675781 255.84375 246.359375 255.84375 Z M 246.359375 255.84375 " fill-opacity="1" fill-rule="nonzero"/></g><path fill="#000000" d="M 183.546875 135.386719 L 191.441406 135.386719 L 191.441406 139.519531 L 183.546875 139.519531 Z M 183.546875 135.386719 " fill-opacity="1" fill-rule="nonzero"/><g clip-path="url(#061d4b2fdc)"><path fill="#000000" d="M 192.125 132.925781 C 194.085938 130.769531 195.257812 127.433594 195.257812 123.863281 C 195.257812 117.597656 191.773438 112.5 187.496094 112.5 C 183.214844 112.5 179.734375 117.597656 179.734375 123.863281 C 179.734375 127.433594 180.902344 130.769531 182.863281 132.925781 Z M 192.125 132.925781 " fill-opacity="1" fill-rule="nonzero"/></g><path fill="#000000" d="M 183.546875 141.980469 L 191.441406 141.980469 L 191.441406 237.085938 L 183.546875 237.085938 Z M 183.546875 141.980469 " fill-opacity="1" fill-rule="nonzero"/><path fill="#000000" d="M 154.871094 246.761719 C 152.589844 246.761719 150.550781 248.292969 149.914062 250.480469 L 149.066406 253.382812 L 225.921875 253.382812 L 225.078125 250.480469 C 224.4375 248.292969 222.398438 246.761719 220.117188 246.761719 Z M 154.871094 246.761719 " fill-opacity="1" fill-rule="nonzero"/><path fill="#000000" d="M 182.320312 239.546875 L 168.492188 239.546875 L 168.492188 244.304688 L 206.496094 244.304688 L 206.496094 239.546875 Z M 182.320312 239.546875 " fill-opacity="1" fill-rule="nonzero"/><g clip-path="url(#2137aa0a29)"><path fill="#000000" d="M 165.003906 204.433594 L 159.011719 204.433594 L 145.949219 153.300781 C 147.027344 153.492188 148.105469 153.601562 149.164062 153.601562 C 154.160156 153.601562 158.003906 152.113281 161.726562 150.671875 C 164.679688 149.527344 167.472656 148.445312 170.449219 148.347656 C 174.828125 148.203125 178.804688 150.144531 181.089844 151.546875 L 181.089844 141.59375 C 179.265625 140.976562 173.777344 139.339844 168.871094 140.179688 C 166.3125 140.617188 163.832031 141.949219 161.207031 143.359375 C 157.546875 145.324219 153.761719 147.359375 149.164062 147.359375 C 143.855469 147.359375 140.917969 145.503906 139.472656 144.152344 C 138.972656 144.714844 138.390625 145.210938 137.71875 145.597656 C 137.128906 145.933594 136.378906 145.730469 136.042969 145.140625 C 135.703125 144.550781 135.910156 143.800781 136.496094 143.460938 C 137.914062 142.648438 138.796875 141.132812 138.796875 139.5 C 138.796875 136.984375 136.75 134.941406 134.234375 134.941406 C 131.722656 134.941406 129.675781 136.984375 129.675781 139.5 C 129.675781 141.917969 131.082031 144.457031 133.296875 146.703125 L 118.554688 204.433594 L 112.5625 204.433594 C 113.523438 213.382812 124.917969 220.472656 138.78125 220.472656 C 152.648438 220.472656 164.039062 213.382812 165.003906 204.433594 Z M 156.457031 204.433594 L 140.011719 204.433594 L 140.011719 151.371094 C 141.054688 151.863281 142.128906 152.28125 143.226562 152.625 Z M 137.550781 150.050781 L 137.550781 204.433594 L 121.105469 204.433594 L 135.382812 148.539062 C 136.070312 149.070312 136.789062 149.582031 137.550781 150.050781 Z M 137.550781 150.050781 " fill-opacity="1" fill-rule="nonzero"/></g><g clip-path="url(#8b5b438bc0)"><path fill="#000000" d="M 256.4375 204.433594 L 241.691406 146.707031 C 243.910156 144.457031 245.316406 141.917969 245.316406 139.503906 C 245.316406 136.988281 243.269531 134.941406 240.753906 134.941406 C 238.238281 134.941406 236.195312 136.988281 236.195312 139.503906 C 236.195312 141.132812 237.074219 142.652344 238.492188 143.464844 C 239.082031 143.800781 239.285156 144.554688 238.949219 145.140625 C 238.613281 145.730469 237.859375 145.933594 237.269531 145.597656 C 236.597656 145.214844 236.019531 144.714844 235.519531 144.152344 C 234.074219 145.503906 231.132812 147.359375 225.828125 147.359375 C 221.230469 147.359375 217.445312 145.328125 213.78125 143.359375 C 211.15625 141.953125 208.679688 140.621094 206.121094 140.183594 C 201.210938 139.339844 195.726562 140.976562 193.902344 141.59375 L 193.902344 151.550781 C 196.183594 150.152344 200.160156 148.214844 204.542969 148.347656 C 207.515625 148.445312 210.308594 149.527344 213.265625 150.671875 C 216.984375 152.113281 220.832031 153.601562 225.824219 153.601562 C 226.886719 153.601562 227.964844 153.492188 229.039062 153.300781 L 215.980469 204.433594 L 209.988281 204.433594 C 210.949219 213.382812 222.34375 220.472656 236.207031 220.472656 C 250.074219 220.472656 261.464844 213.382812 262.429688 204.433594 Z M 239.609375 148.539062 L 253.886719 204.433594 L 237.4375 204.433594 L 237.4375 150.050781 C 238.203125 149.582031 238.921875 149.070312 239.609375 148.539062 Z M 234.980469 151.371094 L 234.980469 204.433594 L 218.53125 204.433594 L 231.765625 152.625 C 232.863281 152.28125 233.9375 151.863281 234.980469 151.371094 Z M 234.980469 151.371094 " fill-opacity="1" fill-rule="nonzero"/></g></svg>