<svg xmlns="http://www.w3.org/2000/svg" xmlns:xlink="http://www.w3.org/1999/xlink" width="500" zoomAndPan="magnify" viewBox="0 0 375 374.999991" height="500" preserveAspectRatio="xMidYMid meet" version="1.0"><defs><clipPath id="ca67f56c98"><path d="M 0 23.164062 L 375 23.164062 L 375 351.664062 L 0 351.664062 Z M 0 23.164062 " clip-rule="nonzero"/></clipPath><clipPath id="7a7c5d2dab"><path d="M 119 113.0625 L 231 113.0625 L 231 214 L 119 214 Z M 119 113.0625 " clip-rule="nonzero"/></clipPath><clipPath id="5e3a6c05a7"><path d="M 179 220 L 213 220 L 213 262.3125 L 179 262.3125 Z M 179 220 " clip-rule="nonzero"/></clipPath><clipPath id="71d556f6b1"><path d="M 112.5 217 L 177 217 L 177 262.3125 L 112.5 262.3125 Z M 112.5 217 " clip-rule="nonzero"/></clipPath></defs><g clip-path="url(#ca67f56c98)"><path fill="#c59b64" d="M 280.683594 23.164062 L 94.316406 23.164062 L 0.00390625 187.414062 L 94.316406 351.664062 L 280.683594 351.664062 L 374.996094 187.414062 L 280.683594 23.164062 M 275.550781 342.765625 L 99.449219 342.765625 L 10.265625 187.414062 L 99.449219 32.0625 L 275.550781 32.0625 L 364.734375 187.414062 L 275.550781 342.765625 " fill-opacity="1" fill-rule="nonzero"/></g><path fill="#000000" d="M 191.324219 153.984375 C 182.980469 153.984375 176.253906 160.726562 176.253906 169.09375 C 176.253906 177.460938 182.980469 184.199219 191.324219 184.199219 C 199.671875 184.199219 206.394531 177.460938 206.394531 169.09375 C 206.394531 160.726562 199.671875 153.984375 191.324219 153.984375 Z M 193.296875 166.769531 C 195.382812 166.769531 197.121094 168.511719 197.121094 170.835938 L 197.121094 173.394531 C 197.121094 175.601562 195.382812 177.34375 193.296875 177.34375 L 193.296875 178.390625 C 193.296875 179.667969 192.253906 180.714844 190.976562 180.714844 C 189.703125 180.714844 188.660156 179.667969 188.660156 178.390625 L 188.660156 177.34375 L 187.847656 177.34375 C 186.574219 177.34375 185.53125 176.296875 185.53125 175.019531 C 185.53125 173.742188 186.574219 172.695312 187.847656 172.695312 L 192.484375 172.695312 L 192.484375 171.417969 L 189.355469 171.417969 C 187.269531 171.417969 185.53125 169.675781 185.53125 167.351562 L 185.53125 164.792969 C 185.53125 162.585938 187.269531 160.726562 189.355469 160.726562 L 189.355469 159.796875 C 189.355469 158.519531 190.398438 157.472656 191.671875 157.472656 C 192.949219 157.472656 193.992188 158.519531 193.992188 159.796875 L 193.992188 160.84375 L 194.804688 160.84375 C 196.078125 160.84375 197.121094 161.886719 197.121094 163.167969 C 197.121094 164.445312 196.078125 165.492188 194.804688 165.492188 L 190.167969 165.492188 L 190.167969 166.769531 Z M 193.296875 166.769531 " fill-opacity="1" fill-rule="nonzero"/><g clip-path="url(#7a7c5d2dab)"><path fill="#000000" d="M 172.199219 130.742188 L 208.132812 130.742188 C 209.410156 130.742188 210.453125 131.789062 210.453125 133.066406 C 210.453125 134.347656 209.410156 135.390625 208.132812 135.390625 L 172.199219 135.390625 C 170.921875 135.390625 169.878906 134.347656 169.878906 133.066406 C 169.878906 131.789062 170.921875 130.742188 172.199219 130.742188 Z M 213.351562 207.445312 L 166.980469 207.445312 C 165.707031 207.445312 164.664062 206.398438 164.664062 205.121094 C 164.664062 203.839844 165.707031 202.796875 166.980469 202.796875 L 213.351562 202.796875 C 214.625 202.796875 215.667969 203.839844 215.667969 205.121094 C 215.667969 206.398438 214.625 207.445312 213.351562 207.445312 Z M 172.199219 193.5 L 208.132812 193.5 C 209.410156 193.5 210.453125 194.542969 210.453125 195.824219 C 210.453125 197.101562 209.410156 198.148438 208.132812 198.148438 L 172.199219 198.148438 C 170.921875 198.148438 169.878906 197.101562 169.878906 195.824219 C 169.878906 194.542969 170.921875 193.5 172.199219 193.5 Z M 171.617188 169.09375 C 171.617188 158.167969 180.429688 149.335938 191.324219 149.335938 C 202.222656 149.335938 211.03125 158.167969 211.03125 169.09375 C 211.03125 180.015625 202.222656 188.847656 191.324219 188.847656 C 180.429688 188.847656 171.617188 180.015625 171.617188 169.09375 Z M 213.351562 144.6875 L 166.980469 144.6875 C 165.707031 144.6875 164.664062 143.644531 164.664062 142.363281 C 164.664062 141.085938 165.707031 140.039062 166.980469 140.039062 L 213.351562 140.039062 C 214.625 140.039062 215.667969 141.085938 215.667969 142.363281 C 215.667969 143.644531 214.625 144.6875 213.351562 144.6875 Z M 208.828125 113.3125 L 136.726562 113.3125 C 127.105469 113.3125 119.339844 121.097656 119.339844 130.742188 L 119.339844 131.09375 C 119.339844 140.738281 127.105469 148.523438 136.726562 148.523438 C 138.003906 148.523438 139.046875 147.476562 139.046875 146.199219 C 139.046875 144.921875 138.003906 143.875 136.726562 143.875 C 129.65625 143.875 123.976562 138.179688 123.976562 131.09375 L 123.976562 130.742188 C 123.976562 123.65625 129.65625 117.960938 136.726562 117.960938 C 143.796875 117.960938 149.476562 123.65625 149.476562 130.742188 L 149.476562 213.253906 L 219.609375 213.253906 L 219.492188 213.136719 C 219.726562 212.671875 219.957031 212.207031 220.304688 211.628906 C 219.378906 209.1875 219.492188 206.398438 220.886719 204.074219 C 222.160156 201.75 224.246094 200.238281 226.796875 199.773438 C 227.839844 198.261719 229.230469 196.984375 230.855469 196.171875 C 230.96875 196.171875 230.96875 196.054688 230.96875 196.054688 L 230.96875 135.390625 C 230.855469 123.191406 221 113.3125 208.828125 113.3125 Z M 208.828125 113.3125 " fill-opacity="1" fill-rule="nonzero"/></g><g clip-path="url(#5e3a6c05a7)"><path fill="#000000" d="M 185.53125 262.0625 L 206.394531 262.0625 C 209.0625 262.0625 211.261719 260.203125 211.960938 257.761719 C 206.742188 250.675781 206.046875 240.796875 210.453125 232.660156 C 210.914062 231.964844 211.261719 231.152344 211.84375 230.335938 C 212.074219 229.757812 212.191406 229.058594 212.191406 228.363281 L 212.191406 226.039062 C 212.191406 222.785156 209.640625 220.226562 206.394531 220.226562 L 185.53125 220.226562 C 182.285156 220.226562 179.734375 222.785156 179.734375 226.039062 L 179.734375 228.363281 C 179.734375 229.640625 180.195312 230.917969 180.890625 231.847656 C 180.195312 232.777344 179.734375 234.054688 179.734375 235.335938 L 179.734375 237.660156 C 179.734375 238.9375 180.195312 240.214844 180.890625 241.144531 C 180.195312 242.074219 179.734375 243.351562 179.734375 244.632812 L 179.734375 246.957031 C 179.734375 248.234375 180.195312 249.511719 180.890625 250.441406 C 180.195312 251.371094 179.734375 252.648438 179.734375 253.929688 L 179.734375 256.253906 C 179.734375 259.507812 182.285156 262.0625 185.53125 262.0625 Z M 184.371094 226.039062 C 184.371094 225.339844 184.832031 224.875 185.53125 224.875 L 206.394531 224.875 C 207.089844 224.875 207.554688 225.339844 207.554688 226.039062 L 207.554688 228.363281 C 207.554688 229.058594 207.089844 229.523438 206.394531 229.523438 L 185.53125 229.523438 C 184.832031 229.523438 184.371094 229.058594 184.371094 228.363281 Z M 184.371094 235.335938 C 184.371094 234.636719 184.832031 234.171875 185.53125 234.171875 L 206.394531 234.171875 C 207.089844 234.171875 207.554688 234.636719 207.554688 235.335938 L 207.554688 237.660156 C 207.554688 238.355469 207.089844 238.820312 206.394531 238.820312 L 185.53125 238.820312 C 184.832031 238.820312 184.371094 238.355469 184.371094 237.660156 Z M 184.371094 244.632812 C 184.371094 243.933594 184.832031 243.46875 185.53125 243.46875 L 206.394531 243.46875 C 207.089844 243.46875 207.554688 243.933594 207.554688 244.632812 L 207.554688 246.957031 C 207.554688 247.652344 207.089844 248.117188 206.394531 248.117188 L 185.53125 248.117188 C 184.832031 248.117188 184.371094 247.652344 184.371094 246.957031 Z M 184.371094 253.929688 C 184.371094 253.230469 184.832031 252.765625 185.53125 252.765625 L 206.394531 252.765625 C 207.089844 252.765625 207.554688 253.230469 207.554688 253.929688 L 207.554688 256.253906 C 207.554688 256.949219 207.089844 257.414062 206.394531 257.414062 L 185.53125 257.414062 C 184.832031 257.414062 184.371094 256.949219 184.371094 256.253906 Z M 184.371094 253.929688 " fill-opacity="1" fill-rule="nonzero"/></g><path fill="#000000" d="M 258.441406 234.871094 C 255.660156 229.757812 251.835938 223.714844 247.664062 219.414062 C 249.515625 220.109375 252.648438 221.855469 254.039062 224.644531 C 254.386719 225.457031 255.3125 225.921875 256.125 225.921875 C 256.472656 225.921875 256.820312 225.804688 257.167969 225.6875 C 258.328125 225.109375 258.789062 223.714844 258.210938 222.550781 C 256.703125 219.414062 254.039062 217.4375 251.71875 216.160156 C 253.109375 215.113281 254.5 213.835938 255.660156 212.09375 C 256.355469 211.046875 256.125 209.535156 255.082031 208.839844 C 254.039062 208.140625 252.53125 208.375 251.835938 209.417969 C 250.210938 211.742188 248.011719 213.136719 245.921875 214.066406 L 248.125 210.464844 C 248.9375 209.1875 248.9375 207.558594 248.125 206.164062 C 247.429688 204.886719 246.039062 204.074219 244.53125 204.074219 L 243.375 204.074219 C 242.5625 201.75 240.359375 199.308594 236.417969 199.191406 C 236.300781 199.191406 236.300781 199.191406 236.1875 199.191406 C 232.246094 199.308594 230.160156 201.75 229.230469 204.074219 L 228.070312 204.074219 C 226.566406 204.074219 225.175781 204.886719 224.476562 206.164062 C 223.78125 207.445312 223.78125 209.070312 224.476562 210.464844 L 228.070312 216.507812 C 222.738281 220.460938 217.640625 228.363281 214.160156 234.753906 C 210.105469 242.074219 211.261719 251.253906 217.058594 256.949219 C 220.304688 260.203125 224.476562 261.945312 229 261.945312 L 243.375 261.945312 C 247.777344 261.945312 252.066406 260.203125 255.3125 256.949219 C 261.339844 251.371094 262.5 242.191406 258.441406 234.871094 Z M 231.316406 208.839844 C 232.59375 208.839844 233.519531 207.910156 233.636719 206.628906 C 233.636719 205.816406 234.101562 204.074219 236.535156 203.957031 C 238.96875 204.074219 239.316406 205.933594 239.433594 206.628906 C 239.433594 207.910156 240.476562 208.839844 241.75 208.839844 L 243.953125 208.839844 L 240.011719 215.578125 C 239.894531 215.578125 239.894531 215.578125 239.894531 215.578125 L 233.402344 215.578125 L 229.464844 208.839844 Z M 240.011719 236.496094 C 242.5625 236.496094 244.648438 238.589844 244.648438 241.144531 L 244.648438 243.46875 C 244.648438 246.027344 242.5625 248.117188 240.011719 248.117188 L 238.851562 248.117188 L 238.851562 249.28125 C 238.851562 250.558594 237.808594 251.605469 236.535156 251.605469 C 235.257812 251.605469 234.214844 250.558594 234.214844 249.28125 L 234.214844 248.117188 L 230.738281 248.117188 C 229.464844 248.117188 228.417969 247.070312 228.417969 245.792969 C 228.417969 244.515625 229.464844 243.46875 230.738281 243.46875 L 240.011719 243.46875 L 240.011719 241.144531 L 233.054688 241.144531 C 230.507812 241.144531 228.417969 239.054688 228.417969 236.496094 L 228.417969 234.171875 C 228.417969 231.617188 230.507812 229.523438 233.054688 229.523438 L 234.214844 229.523438 L 234.214844 228.363281 C 234.214844 227.082031 235.257812 226.039062 236.535156 226.039062 C 237.808594 226.039062 238.851562 227.082031 238.851562 228.363281 L 238.851562 229.523438 L 242.328125 229.523438 C 243.605469 229.523438 244.648438 230.570312 244.648438 231.847656 C 244.648438 233.125 243.605469 234.171875 242.328125 234.171875 L 233.054688 234.171875 L 233.054688 236.496094 Z M 240.011719 236.496094 " fill-opacity="1" fill-rule="nonzero"/><g clip-path="url(#71d556f6b1)"><path fill="#000000" d="M 113.195312 261.480469 C 113.773438 262.0625 114.703125 262.0625 115.515625 262.0625 C 135.914062 262.0625 156.433594 262.0625 176.835938 262.0625 C 175.90625 260.667969 175.328125 259.042969 175.097656 257.414062 C 169.996094 257.414062 165.011719 257.414062 159.910156 257.414062 C 159.910156 255.902344 159.910156 254.277344 159.910156 252.765625 C 165.011719 252.765625 169.996094 252.765625 175.097656 252.765625 C 175.558594 251.253906 175.558594 249.628906 175.097656 248.117188 C 169.996094 248.117188 165.011719 248.117188 159.910156 248.117188 C 159.910156 246.605469 159.910156 244.980469 159.910156 243.46875 C 165.011719 243.46875 169.996094 243.46875 175.097656 243.46875 C 175.558594 241.957031 175.558594 240.332031 175.097656 238.820312 C 169.996094 238.820312 165.011719 238.820312 159.910156 238.820312 C 159.910156 237.308594 159.910156 235.683594 159.910156 234.171875 C 165.011719 234.171875 169.996094 234.171875 175.097656 234.171875 C 175.558594 232.660156 175.558594 231.035156 175.097656 229.523438 C 169.878906 229.523438 164.664062 229.523438 159.449219 229.523438 C 158.75 227.199219 158.171875 224.875 157.476562 222.550781 C 161.300781 222.550781 170.226562 222.550781 170.808594 222.667969 C 172.546875 223.015625 173.820312 224.292969 174.980469 225.574219 C 175.097656 223.828125 175.558594 222.203125 176.371094 220.691406 C 174.632812 218.019531 170.921875 217.785156 167.792969 217.785156 C 165.476562 217.785156 131.394531 217.902344 130.351562 217.902344 C 129.773438 217.902344 129.191406 217.902344 128.730469 217.902344 C 128.382812 217.902344 128.148438 218.25 127.800781 218.484375 C 126.0625 219.878906 115.398438 228.363281 114.46875 229.175781 C 113.890625 229.640625 113.3125 230.105469 112.964844 230.800781 C 112.5 231.5 112.5 232.546875 112.5 233.359375 C 112.5 241.957031 112.5 250.441406 112.5 259.042969 C 112.5 259.855469 112.617188 260.902344 113.195312 261.480469 Z M 148.78125 222.550781 L 152.609375 222.550781 L 154.578125 229.523438 L 146.8125 229.523438 Z M 130.121094 222.550781 L 143.914062 222.550781 L 141.945312 229.523438 L 121.425781 229.523438 Z M 117.136719 234.171875 L 141.480469 234.171875 L 141.480469 238.820312 L 117.136719 238.820312 Z M 117.136719 243.46875 L 141.480469 243.46875 L 141.480469 248.117188 L 117.136719 248.117188 Z M 117.136719 252.765625 L 141.480469 252.765625 L 141.480469 257.414062 L 117.136719 257.414062 Z M 117.136719 252.765625 " fill-opacity="1" fill-rule="nonzero"/></g></svg>