<svg xmlns="http://www.w3.org/2000/svg" xmlns:xlink="http://www.w3.org/1999/xlink" width="500" zoomAndPan="magnify" viewBox="0 0 375 374.999991" height="500" preserveAspectRatio="xMidYMid meet" version="1.0"><defs><clipPath id="38ea92a127"><path d="M 0 23.164062 L 375 23.164062 L 375 351.664062 L 0 351.664062 Z M 0 23.164062 " clip-rule="nonzero"/></clipPath><clipPath id="d7a64a21fe"><path d="M 112.5 112.5 L 262.5 112.5 L 262.5 262.5 L 112.5 262.5 Z M 112.5 112.5 " clip-rule="nonzero"/></clipPath></defs><g clip-path="url(#38ea92a127)"><path fill="#c59b64" d="M 280.683594 23.164062 L 94.316406 23.164062 L 0.00390625 187.414062 L 94.316406 351.664062 L 280.683594 351.664062 L 374.996094 187.414062 L 280.683594 23.164062 M 275.550781 342.765625 L 99.449219 342.765625 L 10.265625 187.414062 L 99.449219 32.0625 L 275.550781 32.0625 L 364.734375 187.414062 L 275.550781 342.765625 " fill-opacity="1" fill-rule="nonzero"/></g><path fill="#c59b64" d="M 194.757812 141.53125 L 194.757812 165.726562 L 204.433594 165.726562 L 204.433594 175.402344 L 233.46875 175.402344 L 233.46875 233.46875 L 247.984375 233.46875 L 247.984375 141.53125 L 194.757812 141.53125 " fill-opacity="1" fill-rule="nonzero"/><path fill="#c59b64" d="M 180.242188 228.628906 L 165.726562 228.628906 L 165.726562 214.113281 L 180.242188 214.113281 L 180.242188 228.628906 " fill-opacity="1" fill-rule="nonzero"/><path fill="#c59b64" d="M 199.597656 228.628906 L 185.082031 228.628906 L 185.082031 214.113281 L 199.597656 214.113281 L 199.597656 228.628906 " fill-opacity="1" fill-rule="nonzero"/><path fill="#c59b64" d="M 218.953125 228.628906 L 204.433594 228.628906 L 204.433594 214.113281 L 218.953125 214.113281 L 218.953125 228.628906 " fill-opacity="1" fill-rule="nonzero"/><g clip-path="url(#d7a64a21fe)"><path fill="#000000" d="M 257.660156 257.660156 L 117.339844 257.660156 L 117.339844 255.242188 C 117.339844 251.234375 120.589844 247.984375 124.597656 247.984375 C 125.144531 247.984375 125.730469 248.070312 126.429688 248.257812 L 129.597656 249.089844 L 129.464844 245.820312 C 129.464844 245.679688 129.433594 245.546875 129.433594 245.566406 C 129.433594 241.558594 132.6875 238.304688 136.695312 238.304688 C 140.097656 238.304688 143.082031 240.726562 143.789062 244.050781 L 144.328125 246.59375 L 146.816406 245.886719 C 147.570312 245.667969 148.203125 245.566406 148.789062 245.566406 C 150.9375 245.566406 152.515625 246.519531 153.457031 247.324219 L 155.632812 249.164062 L 157.097656 246.71875 C 158.429688 244.476562 160.753906 243.144531 163.304688 243.144531 C 166.359375 243.144531 169.101562 245.101562 170.121094 248.023438 L 171.160156 250.988281 L 173.757812 249.222656 C 176.027344 247.699219 179.023438 247.550781 181.519531 249.042969 L 184.769531 250.980469 L 185.164062 247.21875 C 185.5625 243.515625 188.644531 240.726562 192.339844 240.726562 C 195.742188 240.726562 198.726562 243.144531 199.4375 246.472656 L 199.976562 249.015625 L 202.460938 248.304688 C 203.214844 248.089844 203.847656 247.984375 204.433594 247.984375 C 205.890625 247.984375 207.300781 248.410156 208.5 249.222656 L 211.097656 250.988281 L 212.136719 248.023438 C 213.160156 245.101562 215.898438 243.144531 218.953125 243.144531 C 222.003906 243.144531 224.746094 245.101562 225.765625 248.023438 L 226.804688 250.988281 L 229.402344 249.222656 C 230.605469 248.410156 232.011719 247.984375 233.46875 247.984375 C 236.09375 247.984375 238.535156 249.449219 239.808594 251.800781 L 241.933594 255.714844 L 244.0625 251.800781 C 245.335938 249.449219 247.777344 247.984375 250.402344 247.984375 C 254.410156 247.984375 257.660156 251.234375 257.660156 255.242188 Z M 122.175781 233.46875 L 151.210938 233.46875 L 151.210938 218.953125 L 122.175781 218.953125 L 122.175781 214.113281 L 151.210938 214.113281 L 151.210938 199.597656 L 122.175781 199.597656 L 122.175781 194.757812 L 151.210938 194.757812 L 151.210938 180.242188 L 122.175781 180.242188 L 122.175781 175.402344 L 151.210938 175.402344 L 151.210938 160.886719 L 122.175781 160.886719 L 122.175781 156.046875 L 167.144531 156.046875 L 175.402344 164.308594 L 175.402344 170.566406 L 165.726562 170.566406 L 165.726562 180.242188 L 156.046875 180.242188 L 156.046875 240.78125 C 155.492188 241.207031 154.953125 241.660156 154.46875 242.179688 C 152.429688 241.074219 150.140625 240.546875 147.796875 240.773438 C 145.90625 236.425781 141.5625 233.46875 136.695312 233.46875 C 130.851562 233.46875 125.957031 237.636719 124.84375 243.144531 C 123.925781 243.136719 123.039062 243.25 122.175781 243.429688 Z M 127.015625 228.628906 L 122.175781 228.628906 L 122.175781 223.789062 L 127.015625 223.789062 Z M 136.695312 228.628906 L 131.855469 228.628906 L 131.855469 223.789062 L 136.695312 223.789062 Z M 146.371094 223.789062 L 146.371094 228.628906 L 141.53125 228.628906 L 141.53125 223.789062 Z M 127.015625 209.273438 L 122.175781 209.273438 L 122.175781 204.4375 L 127.015625 204.4375 Z M 136.695312 209.273438 L 131.855469 209.273438 L 131.855469 204.4375 L 136.695312 204.4375 Z M 146.371094 204.4375 L 146.371094 209.273438 L 141.53125 209.273438 L 141.53125 204.4375 Z M 127.015625 189.917969 L 122.175781 189.917969 L 122.175781 185.082031 L 127.015625 185.082031 Z M 136.695312 189.917969 L 131.855469 189.917969 L 131.855469 185.082031 L 136.695312 185.082031 Z M 146.371094 185.082031 L 146.371094 189.917969 L 141.53125 189.917969 L 141.53125 185.082031 Z M 127.015625 170.566406 L 122.175781 170.566406 L 122.175781 165.726562 L 127.015625 165.726562 Z M 136.695312 170.566406 L 131.855469 170.566406 L 131.855469 165.726562 L 136.695312 165.726562 Z M 146.371094 165.726562 L 146.371094 170.566406 L 141.53125 170.566406 L 141.53125 165.726562 Z M 157.464844 146.371094 L 162.304688 151.210938 L 122.175781 151.210938 L 122.175781 146.371094 Z M 127.015625 127.015625 L 136.695312 127.015625 L 136.695312 141.53125 L 127.015625 141.53125 Z M 151.210938 131.855469 L 156.046875 131.855469 L 156.046875 141.53125 L 151.210938 141.53125 Z M 160.886719 209.273438 L 223.789062 209.273438 L 223.789062 239.347656 C 222.296875 238.683594 220.652344 238.304688 218.953125 238.304688 C 214.773438 238.304688 210.945312 240.488281 208.765625 243.949219 C 207.089844 243.296875 205.296875 243.011719 203.441406 243.191406 C 201.554688 238.84375 197.207031 235.886719 192.339844 235.886719 C 187.246094 235.886719 182.851562 239.054688 181.101562 243.617188 C 178.578125 242.878906 175.875 243.023438 173.496094 243.949219 C 171.3125 240.488281 167.484375 238.304688 163.304688 238.304688 C 162.484375 238.304688 161.671875 238.402344 160.886719 238.5625 Z M 160.886719 194.757812 L 165.726562 194.757812 L 165.726562 204.4375 L 160.886719 204.4375 Z M 218.953125 194.757812 L 223.789062 194.757812 L 223.789062 204.4375 L 218.953125 204.4375 Z M 209.273438 194.757812 L 214.113281 194.757812 L 214.113281 204.4375 L 209.273438 204.4375 Z M 199.597656 194.757812 L 204.433594 194.757812 L 204.433594 204.4375 L 199.597656 204.4375 Z M 189.917969 194.757812 L 194.757812 194.757812 L 194.757812 204.4375 L 189.917969 204.4375 Z M 180.242188 194.757812 L 185.082031 194.757812 L 185.082031 204.4375 L 180.242188 204.4375 Z M 175.402344 194.757812 L 175.402344 204.4375 L 170.566406 204.4375 L 170.566406 194.757812 Z M 223.789062 185.082031 L 223.789062 189.917969 L 160.886719 189.917969 L 160.886719 185.082031 Z M 194.757812 180.242188 L 170.566406 180.242188 L 170.566406 175.402344 L 194.757812 175.402344 Z M 189.917969 136.695312 L 252.824219 136.695312 L 252.824219 243.390625 C 252.039062 243.230469 251.234375 243.144531 250.402344 243.144531 C 247.191406 243.144531 244.164062 244.441406 241.933594 246.652344 C 239.707031 244.441406 236.679688 243.144531 233.46875 243.144531 C 231.972656 243.144531 230.507812 243.417969 229.140625 243.949219 C 228.980469 243.703125 228.800781 243.476562 228.628906 243.238281 L 228.628906 180.242188 L 199.597656 180.242188 L 199.597656 170.566406 L 189.917969 170.566406 Z M 199.597656 127.015625 L 223.789062 127.015625 L 223.789062 131.855469 L 199.597656 131.855469 Z M 257.660156 245.621094 L 257.660156 131.855469 L 247.984375 131.855469 L 247.984375 117.339844 L 243.144531 117.339844 L 243.144531 131.855469 L 238.304688 131.855469 L 238.304688 112.5 L 233.46875 112.5 L 233.46875 131.855469 L 228.628906 131.855469 L 228.628906 122.175781 L 194.757812 122.175781 L 194.757812 131.855469 L 185.082031 131.855469 L 185.082031 170.566406 L 180.242188 170.566406 L 180.242188 162.304688 L 160.886719 142.949219 L 160.886719 127.015625 L 146.371094 127.015625 L 146.371094 141.53125 L 141.53125 141.53125 L 141.53125 122.175781 L 122.175781 122.175781 L 122.175781 141.53125 L 117.339844 141.53125 L 117.339844 245.679688 C 114.429688 247.878906 112.5 251.320312 112.5 255.242188 L 112.5 262.5 L 262.5 262.5 L 262.5 255.242188 C 262.5 251.3125 260.582031 247.832031 257.660156 245.621094 " fill-opacity="1" fill-rule="nonzero"/></g><path fill="#000000" d="M 218.953125 141.53125 L 214.113281 141.53125 L 214.113281 146.371094 L 218.953125 146.371094 L 218.953125 141.53125 " fill-opacity="1" fill-rule="nonzero"/><path fill="#000000" d="M 228.628906 141.53125 L 223.789062 141.53125 L 223.789062 146.371094 L 228.628906 146.371094 L 228.628906 141.53125 " fill-opacity="1" fill-rule="nonzero"/><path fill="#000000" d="M 209.273438 141.53125 L 204.433594 141.53125 L 204.433594 146.371094 L 209.273438 146.371094 L 209.273438 141.53125 " fill-opacity="1" fill-rule="nonzero"/><path fill="#000000" d="M 238.304688 141.53125 L 233.46875 141.53125 L 233.46875 146.371094 L 238.304688 146.371094 L 238.304688 141.53125 " fill-opacity="1" fill-rule="nonzero"/><path fill="#000000" d="M 247.984375 141.53125 L 243.144531 141.53125 L 243.144531 146.371094 L 247.984375 146.371094 L 247.984375 141.53125 " fill-opacity="1" fill-rule="nonzero"/><path fill="#000000" d="M 199.597656 141.53125 L 194.757812 141.53125 L 194.757812 146.371094 L 199.597656 146.371094 L 199.597656 141.53125 " fill-opacity="1" fill-rule="nonzero"/><path fill="#000000" d="M 209.273438 151.210938 L 204.433594 151.210938 L 204.433594 156.046875 L 209.273438 156.046875 L 209.273438 151.210938 " fill-opacity="1" fill-rule="nonzero"/><path fill="#000000" d="M 228.628906 151.210938 L 223.789062 151.210938 L 223.789062 156.046875 L 228.628906 156.046875 L 228.628906 151.210938 " fill-opacity="1" fill-rule="nonzero"/><path fill="#000000" d="M 247.984375 151.210938 L 243.144531 151.210938 L 243.144531 156.046875 L 247.984375 156.046875 L 247.984375 151.210938 " fill-opacity="1" fill-rule="nonzero"/><path fill="#000000" d="M 199.597656 151.210938 L 194.757812 151.210938 L 194.757812 156.046875 L 199.597656 156.046875 L 199.597656 151.210938 " fill-opacity="1" fill-rule="nonzero"/><path fill="#000000" d="M 238.304688 151.210938 L 233.46875 151.210938 L 233.46875 156.046875 L 238.304688 156.046875 L 238.304688 151.210938 " fill-opacity="1" fill-rule="nonzero"/><path fill="#000000" d="M 218.953125 151.210938 L 214.113281 151.210938 L 214.113281 156.046875 L 218.953125 156.046875 L 218.953125 151.210938 " fill-opacity="1" fill-rule="nonzero"/><path fill="#000000" d="M 199.597656 160.886719 L 194.757812 160.886719 L 194.757812 165.726562 L 199.597656 165.726562 L 199.597656 160.886719 " fill-opacity="1" fill-rule="nonzero"/><path fill="#000000" d="M 218.953125 160.886719 L 214.113281 160.886719 L 214.113281 165.726562 L 218.953125 165.726562 L 218.953125 160.886719 " fill-opacity="1" fill-rule="nonzero"/><path fill="#000000" d="M 247.984375 160.886719 L 243.144531 160.886719 L 243.144531 165.726562 L 247.984375 165.726562 L 247.984375 160.886719 " fill-opacity="1" fill-rule="nonzero"/><path fill="#000000" d="M 238.304688 160.886719 L 233.46875 160.886719 L 233.46875 165.726562 L 238.304688 165.726562 L 238.304688 160.886719 " fill-opacity="1" fill-rule="nonzero"/><path fill="#000000" d="M 209.273438 160.886719 L 204.433594 160.886719 L 204.433594 165.726562 L 209.273438 165.726562 L 209.273438 160.886719 " fill-opacity="1" fill-rule="nonzero"/><path fill="#000000" d="M 228.628906 160.886719 L 223.789062 160.886719 L 223.789062 165.726562 L 228.628906 165.726562 L 228.628906 160.886719 " fill-opacity="1" fill-rule="nonzero"/><path fill="#000000" d="M 238.304688 170.566406 L 233.46875 170.566406 L 233.46875 175.402344 L 238.304688 175.402344 L 238.304688 170.566406 " fill-opacity="1" fill-rule="nonzero"/><path fill="#000000" d="M 209.273438 170.566406 L 204.433594 170.566406 L 204.433594 175.402344 L 209.273438 175.402344 L 209.273438 170.566406 " fill-opacity="1" fill-rule="nonzero"/><path fill="#000000" d="M 247.984375 170.566406 L 243.144531 170.566406 L 243.144531 175.402344 L 247.984375 175.402344 L 247.984375 170.566406 " fill-opacity="1" fill-rule="nonzero"/><path fill="#000000" d="M 218.953125 170.566406 L 214.113281 170.566406 L 214.113281 175.402344 L 218.953125 175.402344 L 218.953125 170.566406 " fill-opacity="1" fill-rule="nonzero"/><path fill="#000000" d="M 228.628906 170.566406 L 223.789062 170.566406 L 223.789062 175.402344 L 228.628906 175.402344 L 228.628906 170.566406 " fill-opacity="1" fill-rule="nonzero"/><path fill="#000000" d="M 238.304688 228.628906 L 233.46875 228.628906 L 233.46875 233.46875 L 238.304688 233.46875 L 238.304688 228.628906 " fill-opacity="1" fill-rule="nonzero"/><path fill="#000000" d="M 238.304688 199.597656 L 233.46875 199.597656 L 233.46875 204.4375 L 238.304688 204.4375 L 238.304688 199.597656 " fill-opacity="1" fill-rule="nonzero"/><path fill="#000000" d="M 238.304688 189.917969 L 233.46875 189.917969 L 233.46875 194.757812 L 238.304688 194.757812 L 238.304688 189.917969 " fill-opacity="1" fill-rule="nonzero"/><path fill="#000000" d="M 238.304688 180.242188 L 233.46875 180.242188 L 233.46875 185.082031 L 238.304688 185.082031 L 238.304688 180.242188 " fill-opacity="1" fill-rule="nonzero"/><path fill="#000000" d="M 238.304688 218.953125 L 233.46875 218.953125 L 233.46875 223.789062 L 238.304688 223.789062 L 238.304688 218.953125 " fill-opacity="1" fill-rule="nonzero"/><path fill="#000000" d="M 238.304688 209.273438 L 233.46875 209.273438 L 233.46875 214.113281 L 238.304688 214.113281 L 238.304688 209.273438 " fill-opacity="1" fill-rule="nonzero"/><path fill="#000000" d="M 247.984375 209.273438 L 243.144531 209.273438 L 243.144531 214.113281 L 247.984375 214.113281 L 247.984375 209.273438 " fill-opacity="1" fill-rule="nonzero"/><path fill="#000000" d="M 247.984375 218.953125 L 243.144531 218.953125 L 243.144531 223.789062 L 247.984375 223.789062 L 247.984375 218.953125 " fill-opacity="1" fill-rule="nonzero"/><path fill="#000000" d="M 247.984375 180.242188 L 243.144531 180.242188 L 243.144531 185.082031 L 247.984375 185.082031 L 247.984375 180.242188 " fill-opacity="1" fill-rule="nonzero"/><path fill="#000000" d="M 247.984375 228.628906 L 243.144531 228.628906 L 243.144531 233.46875 L 247.984375 233.46875 L 247.984375 228.628906 " fill-opacity="1" fill-rule="nonzero"/><path fill="#000000" d="M 247.984375 189.917969 L 243.144531 189.917969 L 243.144531 194.757812 L 247.984375 194.757812 L 247.984375 189.917969 " fill-opacity="1" fill-rule="nonzero"/><path fill="#000000" d="M 247.984375 199.597656 L 243.144531 199.597656 L 243.144531 204.4375 L 247.984375 204.4375 L 247.984375 199.597656 " fill-opacity="1" fill-rule="nonzero"/></svg>