<svg xmlns="http://www.w3.org/2000/svg" xmlns:xlink="http://www.w3.org/1999/xlink" width="500" zoomAndPan="magnify" viewBox="0 0 375 374.999991" height="500" preserveAspectRatio="xMidYMid meet" version="1.0"><defs><clipPath id="ae30f9beec"><path d="M 0 23.164062 L 375 23.164062 L 375 351.664062 L 0 351.664062 Z M 0 23.164062 " clip-rule="nonzero"/></clipPath><clipPath id="395721f8a5"><path d="M 112.5 112.5 L 262.5 112.5 L 262.5 262.5 L 112.5 262.5 Z M 112.5 112.5 " clip-rule="nonzero"/></clipPath></defs><g clip-path="url(#ae30f9beec)"><path fill="#c59b64" d="M 280.683594 23.164062 L 94.316406 23.164062 L 0.00390625 187.414062 L 94.316406 351.664062 L 280.683594 351.664062 L 374.996094 187.414062 L 280.683594 23.164062 M 275.550781 342.765625 L 99.449219 342.765625 L 10.265625 187.414062 L 99.449219 32.0625 L 275.550781 32.0625 L 364.734375 187.414062 L 275.550781 342.765625 " fill-opacity="1" fill-rule="nonzero"/></g><g clip-path="url(#395721f8a5)"><path fill="#000000" d="M 261.308594 112.5 L 175.59375 112.5 C 174.9375 112.5 174.40625 113.035156 174.40625 113.691406 L 174.40625 126.785156 L 113.691406 126.785156 C 113.035156 126.785156 112.5 127.320312 112.5 127.976562 L 112.5 199.40625 C 112.5 200.0625 113.035156 200.59375 113.691406 200.59375 L 126.699219 200.59375 L 121.214844 205.675781 C 120.730469 206.121094 120.703125 206.875 121.148438 207.355469 C 121.597656 207.839844 122.351562 207.867188 122.832031 207.421875 L 127.976562 202.660156 L 127.976562 242.261719 C 127.976562 242.917969 128.507812 243.453125 129.164062 243.453125 L 152.59375 243.453125 L 152.316406 244.644531 L 148.59375 244.644531 C 145.007812 244.644531 141.832031 246.929688 140.691406 250.339844 L 139.277344 254.59375 C 139.03125 255.320312 139.152344 256.125 139.597656 256.746094 C 140.042969 257.367188 140.769531 257.738281 141.535156 257.738281 L 149.523438 257.738281 C 150.078125 260.453125 152.480469 262.5 155.355469 262.5 C 158.230469 262.5 160.636719 260.453125 161.1875 257.738281 L 192.382812 257.738281 C 192.9375 260.453125 195.339844 262.5 198.214844 262.5 C 201.089844 262.5 203.492188 260.453125 204.046875 257.738281 L 211.855469 257.738281 C 212.660156 257.738281 213.40625 257.335938 213.851562 256.660156 C 214.292969 255.988281 214.367188 255.140625 214.039062 254.382812 L 211.898438 249.589844 C 210.5625 246.582031 207.574219 244.644531 204.285156 244.644531 L 201.253906 244.644531 L 198.460938 232.738281 L 261.308594 232.738281 C 261.964844 232.738281 262.5 232.203125 262.5 231.546875 L 262.5 113.691406 C 262.5 113.035156 261.964844 112.5 261.308594 112.5 Z M 174.40625 193.902344 L 170.832031 190.59375 L 170.832031 133.929688 C 170.832031 133.269531 170.300781 132.738281 169.644531 132.738281 L 134.421875 132.738281 L 137.992188 129.167969 L 174.40625 129.167969 Z M 162.695312 183.058594 L 162.210938 180.785156 C 160.652344 173.523438 154.5625 168.453125 147.40625 168.453125 L 141.882812 168.453125 C 134.722656 168.453125 128.632812 173.523438 127.074219 180.789062 L 124.632812 192.261719 L 120.832031 192.261719 L 120.832031 146.328125 L 132.039062 135.117188 L 168.453125 135.117188 L 168.453125 188.390625 Z M 126.007812 129.167969 L 114.882812 140.292969 L 114.882812 129.167969 Z M 114.882812 152.277344 L 118.453125 148.707031 L 118.453125 193.453125 C 118.453125 194.109375 118.984375 194.644531 119.644531 194.644531 L 133.128906 194.644531 L 129.269531 198.214844 L 114.882812 198.214844 Z M 130.355469 200.453125 L 154.167969 178.40625 L 168.796875 191.953125 C 168.800781 191.957031 168.808594 191.964844 168.8125 191.96875 L 174.746094 197.464844 C 174.753906 197.46875 174.757812 197.476562 174.765625 197.480469 L 177.976562 200.453125 L 177.976562 225.59375 L 163.691406 225.59375 L 163.691406 214.882812 C 163.691406 214.222656 163.15625 213.691406 162.5 213.691406 L 145.832031 213.691406 C 145.175781 213.691406 144.644531 214.222656 144.644531 214.882812 L 144.644531 241.070312 L 130.355469 241.070312 Z M 200.308594 247.023438 L 204.285156 247.023438 C 206.632812 247.023438 208.769531 248.410156 209.722656 250.558594 L 211.855469 255.355469 L 204.046875 255.355469 C 203.492188 252.644531 201.089844 250.59375 198.214844 250.59375 C 195.339844 250.59375 192.9375 252.644531 192.382812 255.355469 L 161.1875 255.355469 C 160.636719 252.644531 158.230469 250.59375 155.355469 250.59375 C 152.484375 250.59375 150.078125 252.644531 149.523438 255.355469 L 141.535156 255.351562 L 142.949219 251.089844 C 143.765625 248.660156 146.035156 247.023438 148.59375 247.023438 L 153.261719 247.023438 C 153.816406 247.023438 154.296875 246.644531 154.421875 246.105469 L 157.539062 232.808594 C 158.144531 230.242188 160.195312 228.3125 162.664062 228.011719 C 162.871094 227.984375 163.089844 227.976562 163.308594 227.976562 L 190.261719 227.976562 C 192.691406 227.976562 194.855469 229.542969 195.777344 231.996094 C 195.886719 232.261719 195.964844 232.53125 196.03125 232.808594 L 199.148438 246.105469 C 199.277344 246.644531 199.757812 247.023438 200.308594 247.023438 Z M 260.117188 230.355469 L 197.640625 230.355469 C 196.222656 227.445312 193.417969 225.59375 190.261719 225.59375 L 180.355469 225.59375 L 180.355469 202.660156 L 185.5 207.421875 C 185.730469 207.632812 186.019531 207.738281 186.308594 207.738281 C 186.628906 207.738281 186.949219 207.609375 187.183594 207.355469 C 187.628906 206.875 187.601562 206.121094 187.117188 205.675781 L 180.015625 199.097656 C 180.007812 199.089844 180 199.085938 179.992188 199.078125 L 176.785156 196.105469 L 176.785156 114.882812 L 260.117188 114.882812 Z M 260.117188 230.355469 " fill-opacity="1" fill-rule="nonzero"/></g><path fill="#000000" d="M 188.691406 230.355469 L 179.167969 230.355469 C 178.507812 230.355469 177.976562 230.890625 177.976562 231.546875 L 177.976562 243.453125 C 177.976562 244.109375 178.507812 244.644531 179.167969 244.644531 L 194.644531 244.644531 C 195 244.644531 195.339844 244.480469 195.566406 244.203125 C 195.792969 243.925781 195.882812 243.5625 195.808594 243.210938 L 194.214844 235.566406 C 193.644531 233.328125 192.457031 230.355469 188.691406 230.355469 Z M 188.691406 230.355469 " fill-opacity="1" fill-rule="nonzero"/><path fill="#000000" d="M 174.40625 230.355469 L 164.882812 230.355469 C 161.113281 230.355469 159.925781 233.328125 159.347656 235.613281 L 157.761719 243.210938 C 157.6875 243.5625 157.777344 243.925781 158.003906 244.203125 C 158.230469 244.480469 158.570312 244.644531 158.929688 244.644531 L 174.40625 244.644531 C 175.0625 244.644531 175.59375 244.109375 175.59375 243.453125 L 175.59375 231.546875 C 175.59375 230.890625 175.0625 230.355469 174.40625 230.355469 Z M 174.40625 230.355469 " fill-opacity="1" fill-rule="nonzero"/><path fill="#000000" d="M 160.117188 201.785156 C 160.117188 202.175781 160.082031 202.5625 160.003906 202.945312 C 159.929688 203.332031 159.816406 203.703125 159.664062 204.0625 C 159.515625 204.425781 159.332031 204.769531 159.117188 205.09375 C 158.898438 205.417969 158.652344 205.71875 158.375 205.996094 C 158.097656 206.269531 157.796875 206.519531 157.472656 206.734375 C 157.148438 206.953125 156.804688 207.136719 156.445312 207.285156 C 156.082031 207.433594 155.710938 207.546875 155.328125 207.625 C 154.945312 207.699219 154.558594 207.738281 154.167969 207.738281 C 153.777344 207.738281 153.390625 207.699219 153.003906 207.625 C 152.621094 207.546875 152.25 207.433594 151.890625 207.285156 C 151.527344 207.136719 151.183594 206.953125 150.859375 206.734375 C 150.535156 206.519531 150.234375 206.269531 149.957031 205.996094 C 149.679688 205.71875 149.433594 205.417969 149.21875 205.09375 C 149 204.769531 148.816406 204.425781 148.667969 204.0625 C 148.519531 203.703125 148.40625 203.332031 148.328125 202.945312 C 148.253906 202.5625 148.214844 202.175781 148.214844 201.785156 C 148.214844 201.394531 148.253906 201.007812 148.328125 200.625 C 148.40625 200.242188 148.519531 199.867188 148.667969 199.507812 C 148.816406 199.148438 149 198.804688 149.21875 198.480469 C 149.433594 198.152344 149.679688 197.851562 149.957031 197.578125 C 150.234375 197.300781 150.535156 197.054688 150.859375 196.835938 C 151.183594 196.621094 151.527344 196.4375 151.890625 196.285156 C 152.25 196.136719 152.621094 196.023438 153.003906 195.949219 C 153.390625 195.871094 153.777344 195.832031 154.167969 195.832031 C 154.558594 195.832031 154.945312 195.871094 155.328125 195.949219 C 155.710938 196.023438 156.082031 196.136719 156.445312 196.285156 C 156.804688 196.4375 157.148438 196.621094 157.472656 196.835938 C 157.796875 197.054688 158.097656 197.300781 158.375 197.578125 C 158.652344 197.851562 158.898438 198.152344 159.117188 198.480469 C 159.332031 198.804688 159.515625 199.148438 159.664062 199.507812 C 159.816406 199.867188 159.929688 200.242188 160.003906 200.625 C 160.082031 201.007812 160.117188 201.394531 160.117188 201.785156 Z M 160.117188 201.785156 " fill-opacity="1" fill-rule="nonzero"/><path fill="#000000" d="M 158.929688 152.976562 C 158.929688 153.914062 158.835938 154.84375 158.652344 155.761719 C 158.472656 156.683594 158.199219 157.578125 157.839844 158.441406 C 157.480469 159.308594 157.042969 160.132812 156.519531 160.914062 C 156 161.691406 155.40625 162.414062 154.746094 163.078125 C 154.082031 163.742188 153.359375 164.332031 152.578125 164.855469 C 151.800781 165.375 150.976562 165.816406 150.109375 166.175781 C 149.242188 166.535156 148.351562 166.804688 147.429688 166.988281 C 146.511719 167.171875 145.582031 167.261719 144.644531 167.261719 C 143.703125 167.261719 142.777344 167.171875 141.855469 166.988281 C 140.9375 166.804688 140.042969 166.535156 139.175781 166.175781 C 138.308594 165.816406 137.484375 165.375 136.707031 164.855469 C 135.925781 164.332031 135.203125 163.742188 134.542969 163.078125 C 133.878906 162.414062 133.285156 161.691406 132.765625 160.914062 C 132.242188 160.132812 131.804688 159.308594 131.445312 158.441406 C 131.085938 157.578125 130.816406 156.683594 130.632812 155.761719 C 130.449219 154.84375 130.355469 153.914062 130.355469 152.976562 C 130.355469 152.039062 130.449219 151.109375 130.632812 150.1875 C 130.816406 149.269531 131.085938 148.375 131.445312 147.507812 C 131.804688 146.644531 132.242188 145.820312 132.765625 145.039062 C 133.285156 144.257812 133.878906 143.539062 134.542969 142.875 C 135.203125 142.210938 135.925781 141.621094 136.707031 141.097656 C 137.484375 140.578125 138.308594 140.136719 139.175781 139.777344 C 140.042969 139.417969 140.9375 139.148438 141.855469 138.964844 C 142.777344 138.78125 143.703125 138.691406 144.644531 138.691406 C 145.582031 138.691406 146.511719 138.78125 147.429688 138.964844 C 148.351562 139.148438 149.242188 139.417969 150.109375 139.777344 C 150.976562 140.136719 151.800781 140.578125 152.578125 141.097656 C 153.359375 141.621094 154.082031 142.210938 154.746094 142.875 C 155.40625 143.539062 156 144.257812 156.519531 145.039062 C 157.042969 145.820312 157.480469 146.644531 157.839844 147.507812 C 158.199219 148.375 158.472656 149.269531 158.652344 150.1875 C 158.835938 151.109375 158.929688 152.039062 158.929688 152.976562 Z M 158.929688 152.976562 " fill-opacity="1" fill-rule="nonzero"/><path fill="#000000" d="M 181.546875 193.953125 C 181.546875 193.296875 181.015625 192.761719 180.355469 192.761719 C 179.699219 192.761719 179.167969 193.296875 179.167969 193.953125 C 179.167969 195.953125 180.691406 197.628906 182.738281 198.109375 L 182.738281 199.40625 C 182.738281 200.0625 183.269531 200.59375 183.929688 200.59375 C 184.585938 200.59375 185.117188 200.0625 185.117188 199.40625 L 185.117188 198.109375 C 187.167969 197.625 188.691406 195.953125 188.691406 193.953125 C 188.691406 191.636719 187.375 190.128906 185.117188 189.746094 L 185.117188 186.054688 C 185.828125 186.386719 186.308594 187.003906 186.308594 187.714844 C 186.308594 188.371094 186.84375 188.90625 187.5 188.90625 C 188.15625 188.90625 188.691406 188.371094 188.691406 187.714844 C 188.691406 185.710938 187.167969 184.039062 185.117188 183.558594 L 185.117188 181.546875 C 185.117188 180.890625 184.585938 180.355469 183.929688 180.355469 C 183.269531 180.355469 182.738281 180.890625 182.738281 181.546875 L 182.738281 183.558594 C 180.691406 184.039062 179.167969 185.714844 179.167969 187.714844 C 179.167969 189.796875 180.640625 191.429688 182.738281 191.882812 L 182.738281 195.613281 C 182.03125 195.277344 181.546875 194.664062 181.546875 193.953125 Z M 186.308594 193.953125 C 186.308594 194.664062 185.828125 195.277344 185.117188 195.613281 L 185.117188 192.1875 C 186.289062 192.550781 186.308594 193.457031 186.308594 193.953125 Z M 181.546875 187.714844 C 181.546875 187.003906 182.03125 186.386719 182.738281 186.054688 L 182.738281 189.40625 C 182.0625 189.121094 181.546875 188.570312 181.546875 187.714844 Z M 181.546875 187.714844 " fill-opacity="1" fill-rule="nonzero"/><path fill="#000000" d="M 199.40625 187.714844 C 199.40625 188.371094 199.9375 188.90625 200.59375 188.90625 C 201.253906 188.90625 201.785156 188.371094 201.785156 187.714844 C 201.785156 185.710938 200.261719 184.039062 198.214844 183.558594 L 198.214844 181.546875 C 198.214844 180.890625 197.679688 180.355469 197.023438 180.355469 C 196.367188 180.355469 195.832031 180.890625 195.832031 181.546875 L 195.832031 183.558594 C 193.785156 184.039062 192.261719 185.714844 192.261719 187.714844 C 192.261719 189.796875 193.738281 191.429688 195.832031 191.882812 L 195.832031 195.613281 C 195.125 195.28125 194.644531 194.664062 194.644531 193.953125 C 194.644531 193.296875 194.109375 192.761719 193.453125 192.761719 C 192.796875 192.761719 192.261719 193.296875 192.261719 193.953125 C 192.261719 195.957031 193.785156 197.628906 195.832031 198.109375 L 195.832031 199.40625 C 195.832031 200.0625 196.367188 200.59375 197.023438 200.59375 C 197.679688 200.59375 198.214844 200.0625 198.214844 199.40625 L 198.214844 198.109375 C 200.261719 197.625 201.785156 195.953125 201.785156 193.953125 C 201.785156 191.636719 200.46875 190.128906 198.214844 189.746094 L 198.214844 186.054688 C 198.921875 186.386719 199.40625 187.003906 199.40625 187.714844 Z M 194.644531 187.714844 C 194.644531 187.003906 195.125 186.386719 195.832031 186.054688 L 195.832031 189.40625 C 195.160156 189.121094 194.644531 188.570312 194.644531 187.714844 Z M 199.40625 193.953125 C 199.40625 194.664062 198.921875 195.277344 198.214844 195.613281 L 198.214844 192.1875 C 199.386719 192.550781 199.40625 193.457031 199.40625 193.953125 Z M 199.40625 193.953125 " fill-opacity="1" fill-rule="nonzero"/><path fill="#000000" d="M 210.117188 187.714844 C 210.117188 188.371094 210.652344 188.90625 211.308594 188.90625 C 211.964844 188.90625 212.5 188.371094 212.5 187.714844 C 212.5 185.710938 210.976562 184.039062 208.929688 183.558594 L 208.929688 181.546875 C 208.929688 180.890625 208.394531 180.355469 207.738281 180.355469 C 207.082031 180.355469 206.546875 180.890625 206.546875 181.546875 L 206.546875 183.558594 C 204.5 184.039062 202.976562 185.714844 202.976562 187.714844 C 202.976562 189.796875 204.453125 191.429688 206.546875 191.882812 L 206.546875 195.613281 C 205.839844 195.28125 205.355469 194.664062 205.355469 193.953125 C 205.355469 193.296875 204.824219 192.761719 204.167969 192.761719 C 203.507812 192.761719 202.976562 193.296875 202.976562 193.953125 C 202.976562 195.957031 204.5 197.628906 206.546875 198.109375 L 206.546875 199.40625 C 206.546875 200.0625 207.082031 200.59375 207.738281 200.59375 C 208.394531 200.59375 208.929688 200.0625 208.929688 199.40625 L 208.929688 198.109375 C 210.976562 197.625 212.5 195.953125 212.5 193.953125 C 212.5 191.636719 211.183594 190.128906 208.929688 189.746094 L 208.929688 186.054688 C 209.636719 186.386719 210.117188 187.003906 210.117188 187.714844 Z M 205.355469 187.714844 C 205.355469 187.003906 205.839844 186.386719 206.546875 186.054688 L 206.546875 189.40625 C 205.875 189.121094 205.355469 188.570312 205.355469 187.714844 Z M 210.117188 193.953125 C 210.117188 194.664062 209.636719 195.277344 208.929688 195.613281 L 208.929688 192.1875 C 210.101562 192.550781 210.117188 193.457031 210.117188 193.953125 Z M 210.117188 193.953125 " fill-opacity="1" fill-rule="nonzero"/><path fill="#000000" d="M 223.214844 193.953125 C 223.214844 191.636719 221.898438 190.132812 219.644531 189.746094 L 219.644531 186.054688 C 220.351562 186.390625 220.832031 187.003906 220.832031 187.714844 C 220.832031 188.371094 221.367188 188.90625 222.023438 188.90625 C 222.679688 188.90625 223.214844 188.371094 223.214844 187.714844 C 223.214844 185.714844 221.691406 184.039062 219.644531 183.558594 L 219.644531 181.546875 C 219.644531 180.890625 219.109375 180.355469 218.453125 180.355469 C 217.796875 180.355469 217.261719 180.890625 217.261719 181.546875 L 217.261719 183.558594 C 215.214844 184.039062 213.691406 185.714844 213.691406 187.714844 C 213.691406 189.796875 215.164062 191.429688 217.261719 191.882812 L 217.261719 195.613281 C 216.554688 195.28125 216.070312 194.664062 216.070312 193.953125 C 216.070312 193.296875 215.539062 192.761719 214.882812 192.761719 C 214.222656 192.761719 213.691406 193.296875 213.691406 193.953125 C 213.691406 195.957031 215.214844 197.628906 217.261719 198.109375 L 217.261719 199.40625 C 217.261719 200.0625 217.796875 200.59375 218.453125 200.59375 C 219.109375 200.59375 219.644531 200.0625 219.644531 199.40625 L 219.644531 198.109375 C 221.691406 197.628906 223.214844 195.953125 223.214844 193.953125 Z M 216.070312 187.714844 C 216.070312 187.003906 216.554688 186.386719 217.261719 186.054688 L 217.261719 189.40625 C 216.589844 189.121094 216.070312 188.570312 216.070312 187.714844 Z M 219.644531 195.613281 L 219.644531 192.1875 C 220.8125 192.550781 220.832031 193.457031 220.832031 193.953125 C 220.832031 194.664062 220.351562 195.277344 219.644531 195.613281 Z M 219.644531 195.613281 " fill-opacity="1" fill-rule="nonzero"/><path fill="#000000" d="M 233.929688 187.714844 C 233.929688 188.371094 234.460938 188.90625 235.117188 188.90625 C 235.777344 188.90625 236.308594 188.371094 236.308594 187.714844 C 236.308594 185.710938 234.785156 184.039062 232.738281 183.558594 L 232.738281 181.546875 C 232.738281 180.890625 232.203125 180.355469 231.546875 180.355469 C 230.890625 180.355469 230.355469 180.890625 230.355469 181.546875 L 230.355469 183.558594 C 228.308594 184.039062 226.785156 185.714844 226.785156 187.714844 C 226.785156 189.796875 228.261719 191.429688 230.355469 191.882812 L 230.355469 195.613281 C 229.648438 195.28125 229.167969 194.664062 229.167969 193.953125 C 229.167969 193.296875 228.632812 192.761719 227.976562 192.761719 C 227.320312 192.761719 226.785156 193.296875 226.785156 193.953125 C 226.785156 195.957031 228.308594 197.628906 230.355469 198.109375 L 230.355469 199.40625 C 230.355469 200.0625 230.890625 200.59375 231.546875 200.59375 C 232.203125 200.59375 232.738281 200.0625 232.738281 199.40625 L 232.738281 198.109375 C 234.785156 197.625 236.308594 195.953125 236.308594 193.953125 C 236.308594 191.636719 234.992188 190.128906 232.738281 189.746094 L 232.738281 186.054688 C 233.445312 186.386719 233.929688 187.003906 233.929688 187.714844 Z M 229.167969 187.714844 C 229.167969 187.003906 229.648438 186.386719 230.355469 186.054688 L 230.355469 189.40625 C 229.683594 189.121094 229.167969 188.570312 229.167969 187.714844 Z M 233.929688 193.953125 C 233.929688 194.664062 233.445312 195.277344 232.738281 195.613281 L 232.738281 192.1875 C 233.910156 192.550781 233.929688 193.457031 233.929688 193.953125 Z M 233.929688 193.953125 " fill-opacity="1" fill-rule="nonzero"/><path fill="#000000" d="M 244.644531 187.714844 C 244.644531 188.371094 245.175781 188.90625 245.832031 188.90625 C 246.492188 188.90625 247.023438 188.371094 247.023438 187.714844 C 247.023438 185.710938 245.5 184.039062 243.453125 183.558594 L 243.453125 181.546875 C 243.453125 180.890625 242.917969 180.355469 242.261719 180.355469 C 241.605469 180.355469 241.070312 180.890625 241.070312 181.546875 L 241.070312 183.558594 C 239.023438 184.039062 237.5 185.714844 237.5 187.714844 C 237.5 189.796875 238.976562 191.429688 241.070312 191.882812 L 241.070312 195.613281 C 240.363281 195.28125 239.882812 194.664062 239.882812 193.953125 C 239.882812 193.296875 239.347656 192.761719 238.691406 192.761719 C 238.035156 192.761719 237.5 193.296875 237.5 193.953125 C 237.5 195.957031 239.023438 197.628906 241.070312 198.109375 L 241.070312 199.40625 C 241.070312 200.0625 241.605469 200.59375 242.261719 200.59375 C 242.917969 200.59375 243.453125 200.0625 243.453125 199.40625 L 243.453125 198.109375 C 245.5 197.625 247.023438 195.953125 247.023438 193.953125 C 247.023438 191.636719 245.707031 190.128906 243.453125 189.746094 L 243.453125 186.054688 C 244.160156 186.386719 244.644531 187.003906 244.644531 187.714844 Z M 239.882812 187.714844 C 239.882812 187.003906 240.363281 186.386719 241.070312 186.054688 L 241.070312 189.40625 C 240.398438 189.121094 239.882812 188.570312 239.882812 187.714844 Z M 244.644531 193.953125 C 244.644531 194.664062 244.160156 195.277344 243.453125 195.613281 L 243.453125 192.1875 C 244.625 192.550781 244.644531 193.457031 244.644531 193.953125 Z M 244.644531 193.953125 " fill-opacity="1" fill-rule="nonzero"/><path fill="#000000" d="M 255.355469 187.714844 C 255.355469 188.371094 255.890625 188.90625 256.546875 188.90625 C 257.203125 188.90625 257.738281 188.371094 257.738281 187.714844 C 257.738281 185.710938 256.214844 184.039062 254.167969 183.558594 L 254.167969 181.546875 C 254.167969 180.890625 253.632812 180.355469 252.976562 180.355469 C 252.320312 180.355469 251.785156 180.890625 251.785156 181.546875 L 251.785156 183.558594 C 249.738281 184.039062 248.214844 185.714844 248.214844 187.714844 C 248.214844 189.796875 249.6875 191.429688 251.785156 191.882812 L 251.785156 195.613281 C 251.078125 195.28125 250.59375 194.664062 250.59375 193.953125 C 250.59375 193.296875 250.0625 192.761719 249.40625 192.761719 C 248.746094 192.761719 248.214844 193.296875 248.214844 193.953125 C 248.214844 195.957031 249.738281 197.628906 251.785156 198.109375 L 251.785156 199.40625 C 251.785156 200.0625 252.320312 200.59375 252.976562 200.59375 C 253.632812 200.59375 254.167969 200.0625 254.167969 199.40625 L 254.167969 198.109375 C 256.214844 197.625 257.738281 195.953125 257.738281 193.953125 C 257.738281 191.636719 256.421875 190.128906 254.167969 189.746094 L 254.167969 186.054688 C 254.875 186.386719 255.355469 187.003906 255.355469 187.714844 Z M 250.59375 187.714844 C 250.59375 187.003906 251.078125 186.386719 251.785156 186.054688 L 251.785156 189.40625 C 251.113281 189.121094 250.59375 188.570312 250.59375 187.714844 Z M 255.355469 193.953125 C 255.355469 194.664062 254.875 195.277344 254.167969 195.613281 L 254.167969 192.1875 C 255.339844 192.550781 255.355469 193.457031 255.355469 193.953125 Z M 255.355469 193.953125 " fill-opacity="1" fill-rule="nonzero"/><path fill="#000000" d="M 190.851562 195.894531 C 190.226562 195.683594 189.554688 196.023438 189.347656 196.644531 L 188.15625 200.21875 C 187.949219 200.839844 188.285156 201.515625 188.910156 201.722656 C 189.035156 201.765625 189.160156 201.785156 189.285156 201.785156 C 189.785156 201.785156 190.25 201.46875 190.414062 200.972656 L 191.605469 197.398438 C 191.8125 196.777344 191.476562 196.101562 190.851562 195.894531 Z M 190.851562 195.894531 " fill-opacity="1" fill-rule="nonzero"/><path fill="#000000" d="M 224.9375 200.972656 L 226.128906 197.398438 C 226.339844 196.777344 226 196.101562 225.378906 195.894531 C 224.753906 195.683594 224.078125 196.023438 223.871094 196.644531 L 222.679688 200.21875 C 222.472656 200.839844 222.808594 201.515625 223.433594 201.722656 C 223.558594 201.765625 223.6875 201.785156 223.808594 201.785156 C 224.308594 201.785156 224.773438 201.46875 224.9375 200.972656 Z M 224.9375 200.972656 " fill-opacity="1" fill-rule="nonzero"/><path fill="#000000" d="M 182.738281 125.59375 L 195.832031 125.59375 C 196.492188 125.59375 197.023438 125.0625 197.023438 124.40625 C 197.023438 123.746094 196.492188 123.214844 195.832031 123.214844 L 182.738281 123.214844 C 182.082031 123.214844 181.546875 123.746094 181.546875 124.40625 C 181.546875 125.0625 182.082031 125.59375 182.738281 125.59375 Z M 182.738281 125.59375 " fill-opacity="1" fill-rule="nonzero"/><path fill="#000000" d="M 185.117188 135.117188 C 185.117188 135.777344 185.652344 136.308594 186.308594 136.308594 L 255.355469 136.308594 C 256.015625 136.308594 256.546875 135.777344 256.546875 135.117188 C 256.546875 134.460938 256.015625 133.929688 255.355469 133.929688 L 186.308594 133.929688 C 185.652344 133.929688 185.117188 134.460938 185.117188 135.117188 Z M 185.117188 135.117188 " fill-opacity="1" fill-rule="nonzero"/><path fill="#000000" d="M 186.308594 148.214844 L 255.355469 148.214844 C 256.015625 148.214844 256.546875 147.679688 256.546875 147.023438 C 256.546875 146.367188 256.015625 145.832031 255.355469 145.832031 L 186.308594 145.832031 C 185.652344 145.832031 185.117188 146.367188 185.117188 147.023438 C 185.117188 147.679688 185.652344 148.214844 186.308594 148.214844 Z M 186.308594 148.214844 " fill-opacity="1" fill-rule="nonzero"/><path fill="#000000" d="M 186.308594 160.117188 L 255.355469 160.117188 C 256.015625 160.117188 256.546875 159.585938 256.546875 158.929688 C 256.546875 158.269531 256.015625 157.738281 255.355469 157.738281 L 186.308594 157.738281 C 185.652344 157.738281 185.117188 158.269531 185.117188 158.929688 C 185.117188 159.585938 185.652344 160.117188 186.308594 160.117188 Z M 186.308594 160.117188 " fill-opacity="1" fill-rule="nonzero"/><path fill="#000000" d="M 186.308594 172.023438 L 231.546875 172.023438 C 232.203125 172.023438 232.738281 171.492188 232.738281 170.832031 C 232.738281 170.175781 232.203125 169.644531 231.546875 169.644531 L 186.308594 169.644531 C 185.652344 169.644531 185.117188 170.175781 185.117188 170.832031 C 185.117188 171.492188 185.652344 172.023438 186.308594 172.023438 Z M 186.308594 172.023438 " fill-opacity="1" fill-rule="nonzero"/><path fill="#000000" d="M 255.355469 211.308594 L 225.59375 211.308594 C 224.9375 211.308594 224.40625 211.84375 224.40625 212.5 C 224.40625 213.15625 224.9375 213.691406 225.59375 213.691406 L 255.355469 213.691406 C 256.015625 213.691406 256.546875 213.15625 256.546875 212.5 C 256.546875 211.84375 256.015625 211.308594 255.355469 211.308594 Z M 255.355469 211.308594 " fill-opacity="1" fill-rule="nonzero"/><path fill="#000000" d="M 255.355469 218.453125 L 235.117188 218.453125 C 234.460938 218.453125 233.929688 218.984375 233.929688 219.644531 C 233.929688 220.300781 234.460938 220.832031 235.117188 220.832031 L 255.355469 220.832031 C 256.015625 220.832031 256.546875 220.300781 256.546875 219.644531 C 256.546875 218.984375 256.015625 218.453125 255.355469 218.453125 Z M 255.355469 218.453125 " fill-opacity="1" fill-rule="nonzero"/></svg>