<svg xmlns="http://www.w3.org/2000/svg" xmlns:xlink="http://www.w3.org/1999/xlink" width="500" zoomAndPan="magnify" viewBox="0 0 375 374.999991" height="500" preserveAspectRatio="xMidYMid meet" version="1.0"><defs><clipPath id="4556d94994"><path d="M 0 23.164062 L 375 23.164062 L 375 352 L 0 352 Z M 0 23.164062 " clip-rule="nonzero"/></clipPath><clipPath id="fa3e7c3a28"><path d="M 280.683594 23.164062 L 94.316406 23.164062 L 0 187.5 L 94.316406 351.835938 L 280.683594 351.835938 L 375 187.5 L 280.683594 23.164062 M 275.554688 342.933594 L 99.445312 342.933594 L 10.261719 187.5 L 99.445312 32.066406 L 275.554688 32.066406 L 364.738281 187.5 L 275.554688 342.933594 " clip-rule="nonzero"/></clipPath><clipPath id="2786c38e38"><path d="M 112.5 138.546875 L 262.5 138.546875 L 262.5 236.796875 L 112.5 236.796875 Z M 112.5 138.546875 " clip-rule="nonzero"/></clipPath></defs><rect x="-37.5" width="450" fill="#ffffff" y="-37.499999" height="449.999989" fill-opacity="1"/><rect x="-37.5" width="450" fill="#ffffff" y="-37.499999" height="449.999989" fill-opacity="1"/><rect x="-37.5" width="450" fill="#ffffff" y="-37.499999" height="449.999989" fill-opacity="1"/><g clip-path="url(#4556d94994)"><g clip-path="url(#fa3e7c3a28)"><path fill="#c59b64" d="M 0 23.164062 L 375 23.164062 L 375 352.136719 L 0 352.136719 Z M 0 23.164062 " fill-opacity="1" fill-rule="nonzero"/></g></g><path fill="#000000" d="M 183.4375 196.054688 L 180.558594 196.054688 C 179.730469 196.054688 178.980469 195.714844 178.433594 195.164062 L 178.347656 195.082031 C 177.851562 194.546875 177.546875 193.824219 177.546875 193.03125 C 177.546875 191.9375 176.660156 191.046875 175.570312 191.046875 C 174.476562 191.046875 173.59375 191.933594 173.59375 193.03125 C 173.59375 194.882812 174.324219 196.578125 175.515625 197.835938 L 175.640625 197.972656 C 176.78125 199.117188 178.320312 199.867188 180.023438 199.996094 L 180.023438 202.242188 C 180.023438 203.335938 180.90625 204.222656 182 204.222656 C 183.09375 204.222656 183.976562 203.335938 183.976562 202.242188 L 183.976562 199.996094 C 185.679688 199.867188 187.21875 199.117188 188.359375 197.972656 L 188.359375 197.964844 C 189.621094 196.699219 190.40625 194.953125 190.40625 193.03125 C 190.40625 191.113281 189.617188 189.363281 188.359375 188.097656 L 188.355469 188.089844 C 187.09375 186.824219 185.351562 186.039062 183.4375 186.039062 L 180.558594 186.039062 C 179.730469 186.039062 178.980469 185.699219 178.433594 185.148438 L 178.347656 185.066406 C 177.851562 184.53125 177.546875 183.808594 177.546875 183.015625 C 177.546875 182.179688 177.882812 181.425781 178.425781 180.882812 L 178.433594 180.882812 C 178.980469 180.332031 179.730469 179.992188 180.558594 179.992188 L 183.4375 179.992188 C 184.269531 179.992188 185.023438 180.332031 185.566406 180.878906 C 186.109375 181.425781 186.453125 182.183594 186.453125 183.015625 C 186.453125 184.109375 187.335938 185 188.429688 185 C 189.523438 185 190.40625 184.113281 190.40625 183.015625 C 190.40625 181.09375 189.617188 179.347656 188.359375 178.082031 L 188.355469 178.074219 C 187.210938 176.929688 185.675781 176.183594 183.976562 176.050781 L 183.976562 173.804688 C 183.976562 172.710938 183.09375 171.824219 182 171.824219 C 180.90625 171.824219 180.023438 172.710938 180.023438 173.804688 L 180.023438 176.050781 C 178.320312 176.179688 176.78125 176.929688 175.644531 178.078125 C 174.378906 179.347656 173.59375 181.09375 173.59375 183.011719 C 173.59375 184.863281 174.324219 186.558594 175.515625 187.816406 L 175.640625 187.953125 C 176.902344 189.21875 178.644531 190.003906 180.5625 190.003906 L 183.441406 190.003906 C 184.273438 190.003906 185.023438 190.34375 185.570312 190.890625 C 186.113281 191.4375 186.457031 192.199219 186.457031 193.027344 C 186.457031 193.863281 186.113281 194.617188 185.566406 195.164062 C 185.019531 195.714844 184.265625 196.054688 183.4375 196.054688 Z M 183.4375 196.054688 " fill-opacity="1" fill-rule="nonzero"/><path fill="#000000" d="M 182 213.179688 C 188.921875 213.179688 195.191406 210.359375 199.722656 205.808594 C 204.261719 201.261719 207.066406 194.96875 207.066406 188.023438 C 207.066406 181.078125 204.257812 174.789062 199.722656 170.238281 C 195.191406 165.683594 188.921875 162.871094 182 162.871094 C 175.078125 162.871094 168.8125 165.6875 164.277344 170.238281 C 159.742188 174.789062 156.9375 181.082031 156.9375 188.023438 C 156.9375 194.96875 159.742188 201.261719 164.277344 205.808594 C 168.8125 210.363281 175.078125 213.179688 182 213.179688 Z M 167.445312 173.414062 C 171.167969 169.675781 176.316406 167.367188 182 167.367188 C 187.683594 167.367188 192.832031 169.679688 196.554688 173.414062 C 200.28125 177.152344 202.582031 182.320312 202.582031 188.023438 C 202.582031 193.726562 200.277344 198.894531 196.554688 202.632812 C 192.832031 206.371094 187.683594 208.679688 182 208.679688 C 176.316406 208.679688 171.167969 206.367188 167.445312 202.632812 C 163.71875 198.894531 161.417969 193.726562 161.417969 188.023438 C 161.414062 182.320312 163.71875 177.152344 167.445312 173.414062 Z M 167.445312 173.414062 " fill-opacity="1" fill-rule="nonzero"/><g clip-path="url(#2786c38e38)"><path fill="#000000" d="M 262.234375 206.597656 L 251.46875 154.300781 L 251.46875 154.289062 C 251.46875 153.96875 251.402344 153.664062 251.28125 153.390625 L 248.632812 140.527344 C 248.382812 139.3125 247.203125 138.53125 246 138.777344 L 182.042969 152.042969 L 114.769531 152.042969 C 113.535156 152.042969 112.53125 153.046875 112.53125 154.289062 L 112.53125 221.757812 C 112.53125 223 113.535156 224.007812 114.769531 224.007812 L 123.960938 224.007812 L 126.183594 234.800781 C 126.433594 236.015625 127.613281 236.796875 128.816406 236.546875 L 189.292969 224.007812 L 249.226562 224.007812 C 250.460938 224.007812 251.464844 223 251.464844 221.757812 L 251.464844 211.113281 L 260.492188 209.242188 C 261.699219 208.996094 262.484375 207.8125 262.234375 206.597656 Z M 244.710938 143.621094 L 246.445312 152.042969 L 204.101562 152.042969 Z M 130.109375 231.703125 L 128.523438 224.007812 L 167.234375 224.007812 Z M 246.988281 219.511719 L 117.011719 219.511719 L 117.011719 156.539062 L 246.988281 156.539062 Z M 251.46875 206.539062 L 251.46875 176.441406 L 257.410156 205.304688 Z M 251.46875 206.539062 " fill-opacity="1" fill-rule="nonzero"/></g><path fill="#000000" d="M 126.285156 178.148438 C 127.523438 178.148438 128.523438 177.144531 128.523438 175.902344 L 128.523438 167.480469 L 136.917969 167.480469 C 138.152344 167.480469 139.15625 166.472656 139.15625 165.234375 C 139.15625 163.992188 138.152344 162.984375 136.917969 162.984375 L 126.285156 162.984375 C 125.050781 162.984375 124.046875 163.992188 124.046875 165.234375 L 124.046875 175.902344 C 124.042969 177.144531 125.046875 178.148438 126.285156 178.148438 Z M 126.285156 178.148438 " fill-opacity="1" fill-rule="nonzero"/><path fill="#000000" d="M 136.917969 208.566406 L 128.523438 208.566406 L 128.523438 200.144531 C 128.523438 198.90625 127.523438 197.898438 126.285156 197.898438 C 125.050781 197.898438 124.046875 198.90625 124.046875 200.144531 L 124.046875 210.816406 C 124.046875 212.054688 125.050781 213.0625 126.285156 213.0625 L 136.917969 213.0625 C 138.152344 213.0625 139.15625 212.054688 139.15625 210.816406 C 139.15625 209.574219 138.152344 208.566406 136.917969 208.566406 Z M 136.917969 208.566406 " fill-opacity="1" fill-rule="nonzero"/><path fill="#000000" d="M 227.078125 167.480469 L 235.472656 167.480469 L 235.472656 175.902344 C 235.472656 177.144531 236.476562 178.148438 237.710938 178.148438 C 238.945312 178.148438 239.949219 177.144531 239.949219 175.902344 L 239.949219 165.234375 C 239.949219 163.992188 238.945312 162.984375 237.710938 162.984375 L 227.078125 162.984375 C 225.84375 162.984375 224.839844 163.992188 224.839844 165.234375 C 224.839844 166.472656 225.84375 167.480469 227.078125 167.480469 Z M 227.078125 167.480469 " fill-opacity="1" fill-rule="nonzero"/><path fill="#000000" d="M 227.078125 213.066406 L 237.710938 213.066406 C 238.945312 213.066406 239.949219 212.058594 239.949219 210.820312 L 239.949219 200.148438 C 239.949219 198.90625 238.945312 197.902344 237.710938 197.902344 C 236.476562 197.902344 235.472656 198.90625 235.472656 200.148438 L 235.472656 208.570312 L 227.078125 208.570312 C 225.84375 208.570312 224.839844 209.578125 224.839844 210.820312 C 224.839844 212.058594 225.84375 213.066406 227.078125 213.066406 Z M 227.078125 213.066406 " fill-opacity="1" fill-rule="nonzero"/></svg>