<svg xmlns="http://www.w3.org/2000/svg" xmlns:xlink="http://www.w3.org/1999/xlink" width="500" zoomAndPan="magnify" viewBox="0 0 375 374.999991" height="500" preserveAspectRatio="xMidYMid meet" version="1.0"><defs><clipPath id="7d37b3a752"><path d="M 0 23.164062 L 375 23.164062 L 375 352 L 0 352 Z M 0 23.164062 " clip-rule="nonzero"/></clipPath><clipPath id="019fd01a3b"><path d="M 280.683594 23.164062 L 94.316406 23.164062 L 0 187.5 L 94.316406 351.835938 L 280.683594 351.835938 L 375 187.5 L 280.683594 23.164062 M 275.554688 342.933594 L 99.445312 342.933594 L 10.261719 187.5 L 99.445312 32.066406 L 275.554688 32.066406 L 364.738281 187.5 L 275.554688 342.933594 " clip-rule="nonzero"/></clipPath><clipPath id="71b46da48a"><path d="M 130.746094 112.96875 L 280 112.96875 L 280 262.21875 L 130.746094 262.21875 Z M 130.746094 112.96875 " clip-rule="nonzero"/></clipPath></defs><rect x="-37.5" width="450" fill="#ffffff" y="-37.499999" height="449.999989" fill-opacity="1"/><rect x="-37.5" width="450" fill="#ffffff" y="-37.499999" height="449.999989" fill-opacity="1"/><rect x="-37.5" width="450" fill="#ffffff" y="-37.499999" height="449.999989" fill-opacity="1"/><g clip-path="url(#7d37b3a752)"><g clip-path="url(#019fd01a3b)"><path fill="#c59b64" d="M 0 23.164062 L 375 23.164062 L 375 352.136719 L 0 352.136719 Z M 0 23.164062 " fill-opacity="1" fill-rule="nonzero"/></g></g><g clip-path="url(#71b46da48a)"><path fill="#000000" d="M 277.761719 244.519531 L 263.015625 230.191406 C 261.65625 228.871094 259.863281 228.167969 257.964844 228.1875 C 257.777344 228.191406 257.585938 228.203125 257.398438 228.222656 L 252.730469 223.6875 C 259.148438 212.664062 258.480469 198.339844 249.980469 187.871094 C 248.480469 186.023438 246.800781 184.371094 244.976562 182.933594 L 244.976562 117.632812 C 244.976562 115.058594 242.890625 112.96875 240.320312 112.96875 L 135.507812 112.96875 C 132.9375 112.96875 130.851562 115.058594 130.851562 117.632812 L 130.851562 257.554688 C 130.851562 260.128906 132.9375 262.21875 135.507812 262.21875 L 240.320312 262.21875 C 242.890625 262.21875 244.976562 260.128906 244.976562 257.554688 L 244.976562 238.601562 L 245.789062 239.390625 C 245.691406 239.878906 245.644531 240.382812 245.652344 240.894531 C 245.683594 242.792969 246.445312 244.570312 247.804688 245.886719 L 262.550781 260.214844 C 263.925781 261.550781 265.710938 262.21875 267.492188 262.21875 C 269.347656 262.21875 271.199219 261.496094 272.589844 260.0625 L 277.914062 254.570312 C 280.636719 251.757812 280.570312 247.25 277.761719 244.519531 Z M 239.527344 225.007812 C 234.925781 228.753906 229.144531 230.476562 223.25 229.867188 C 217.355469 229.257812 212.046875 226.386719 208.308594 221.78125 C 204.570312 217.175781 202.847656 211.386719 203.457031 205.484375 C 204.066406 199.582031 206.933594 194.269531 211.535156 190.523438 C 215.527344 187.273438 220.410156 185.546875 225.488281 185.546875 C 226.257812 185.546875 227.035156 185.585938 227.8125 185.667969 C 233.707031 186.277344 239.011719 189.148438 242.75 193.753906 C 250.46875 203.261719 249.023438 217.28125 239.527344 225.007812 Z M 140.167969 252.890625 L 140.167969 122.296875 L 235.660156 122.296875 L 235.660156 177.882812 C 233.453125 177.136719 231.144531 176.632812 228.769531 176.386719 C 220.398438 175.519531 212.191406 177.972656 205.660156 183.285156 C 199.128906 188.601562 195.054688 196.144531 194.191406 204.523438 C 193.324219 212.90625 195.773438 221.125 201.082031 227.664062 C 206.386719 234.203125 213.921875 238.28125 222.292969 239.148438 C 223.394531 239.261719 224.496094 239.316406 225.589844 239.316406 C 229.046875 239.316406 232.4375 238.746094 235.660156 237.648438 L 235.660156 252.890625 Z M 267.445312 251.972656 L 255.882812 240.738281 L 258.121094 238.433594 L 269.683594 249.667969 Z M 156.003906 173.746094 C 156.003906 171.171875 158.089844 169.082031 160.664062 169.082031 L 195.839844 169.082031 C 198.410156 169.082031 200.496094 171.171875 200.496094 173.746094 C 200.496094 176.324219 198.410156 178.410156 195.839844 178.410156 L 160.664062 178.410156 C 158.089844 178.410156 156.003906 176.324219 156.003906 173.746094 Z M 185.511719 201.441406 C 185.511719 204.015625 183.425781 206.105469 180.851562 206.105469 L 160.664062 206.105469 C 158.089844 206.105469 156.003906 204.015625 156.003906 201.441406 C 156.003906 198.863281 158.089844 196.777344 160.664062 196.777344 L 180.851562 196.777344 C 183.425781 196.777344 185.511719 198.863281 185.511719 201.441406 Z M 185.511719 229.132812 C 185.511719 231.707031 183.425781 233.796875 180.851562 233.796875 L 160.664062 233.796875 C 158.089844 233.796875 156.003906 231.707031 156.003906 229.132812 C 156.003906 226.558594 158.089844 224.46875 160.664062 224.46875 L 180.851562 224.46875 C 183.425781 224.46875 185.511719 226.558594 185.511719 229.132812 Z M 156.003906 146.054688 C 156.003906 143.480469 158.089844 141.390625 160.664062 141.390625 L 215.164062 141.390625 C 217.738281 141.390625 219.824219 143.480469 219.824219 146.054688 C 219.824219 148.628906 217.738281 150.71875 215.164062 150.71875 L 160.664062 150.71875 C 158.089844 150.71875 156.003906 148.628906 156.003906 146.054688 Z M 156.003906 146.054688 " fill-opacity="1" fill-rule="nonzero"/></g></svg>