<?xml version="1.0" encoding="utf-8"?>
<svg viewBox="0 0 500 500" xmlns="http://www.w3.org/2000/svg">
  <defs>
    <clipPath id="id1">
      <path d="M 57.464844 48 L 365.714844 48 L 365.714844 192 L 57.464844 192 Z M 57.464844 48 " clip-rule="nonzero"/>
    </clipPath>
    <clipPath id="id2">
      <path d="M 57.464844 209 L 357 209 L 357 233 L 57.464844 233 Z M 57.464844 209 " clip-rule="nonzero"/>
    </clipPath>
    <clipPath id="id3">
      <path d="M 59 240 L 72 240 L 72 254.980469 L 59 254.980469 Z M 59 240 " clip-rule="nonzero"/>
    </clipPath>
    <clipPath id="id4">
      <path d="M 74 240 L 77 240 L 77 254.980469 L 74 254.980469 Z M 74 240 " clip-rule="nonzero"/>
    </clipPath>
    <clipPath id="id5">
      <path d="M 80 240 L 93 240 L 93 254.980469 L 80 254.980469 Z M 80 240 " clip-rule="nonzero"/>
    </clipPath>
    <clipPath id="id6">
      <path d="M 95 240 L 110 240 L 110 254.980469 L 95 254.980469 Z M 95 240 " clip-rule="nonzero"/>
    </clipPath>
    <clipPath id="id7">
      <path d="M 112 240 L 126 240 L 126 254.980469 L 112 254.980469 Z M 112 240 " clip-rule="nonzero"/>
    </clipPath>
    <clipPath id="id8">
      <path d="M 127 240 L 143 240 L 143 254.980469 L 127 254.980469 Z M 127 240 " clip-rule="nonzero"/>
    </clipPath>
    <clipPath id="id9">
      <path d="M 145 240 L 160 240 L 160 254.980469 L 145 254.980469 Z M 145 240 " clip-rule="nonzero"/>
    </clipPath>
    <clipPath id="id10">
      <path d="M 168 240 L 184 240 L 184 254.980469 L 168 254.980469 Z M 168 240 " clip-rule="nonzero"/>
    </clipPath>
    <clipPath id="id11">
      <path d="M 186 240 L 198 240 L 198 254.980469 L 186 254.980469 Z M 186 240 " clip-rule="nonzero"/>
    </clipPath>
    <clipPath id="id12">
      <path d="M 205 240 L 217 240 L 217 254.980469 L 205 254.980469 Z M 205 240 " clip-rule="nonzero"/>
    </clipPath>
    <clipPath id="id13">
      <path d="M 217 240 L 233 240 L 233 254.980469 L 217 254.980469 Z M 217 240 " clip-rule="nonzero"/>
    </clipPath>
    <clipPath id="id14">
      <path d="M 233 240 L 246 240 L 246 254.980469 L 233 254.980469 Z M 233 240 " clip-rule="nonzero"/>
    </clipPath>
    <clipPath id="id15">
      <path d="M 249 240 L 263 240 L 263 254.980469 L 249 254.980469 Z M 249 240 " clip-rule="nonzero"/>
    </clipPath>
    <clipPath id="id16">
      <path d="M 265 240 L 268 240 L 268 254.980469 L 265 254.980469 Z M 265 240 " clip-rule="nonzero"/>
    </clipPath>
    <clipPath id="id17">
      <path d="M 276 240 L 292 240 L 292 254.980469 L 276 254.980469 Z M 276 240 " clip-rule="nonzero"/>
    </clipPath>
    <clipPath id="id18">
      <path d="M 293 240 L 306 240 L 306 254.980469 L 293 254.980469 Z M 293 240 " clip-rule="nonzero"/>
    </clipPath>
    <clipPath id="id19">
      <path d="M 307 240 L 323 240 L 323 254.980469 L 307 254.980469 Z M 307 240 " clip-rule="nonzero"/>
    </clipPath>
    <clipPath id="id20">
      <path d="M 324 240 L 337 240 L 337 254.980469 L 324 254.980469 Z M 324 240 " clip-rule="nonzero"/>
    </clipPath>
    <clipPath id="id21">
      <path d="M 339 240 L 343 240 L 343 254.980469 L 339 254.980469 Z M 339 240 " clip-rule="nonzero"/>
    </clipPath>
    <clipPath id="id22">
      <path d="M 344 240 L 360 240 L 360 254.980469 L 344 254.980469 Z M 344 240 " clip-rule="nonzero"/>
    </clipPath>
  </defs>
  <g clip-path="url(#id1)" transform="matrix(1.533927, 0, 0, 1.533927, -69.092941, 22.3218)" style="">
    <path fill="#686d6a" d="M 277.230469 165.476562 L 277.230469 165.703125 C 277.230469 180.589844 266.394531 191.53125 248.78125 191.53125 C 234.554688 191.53125 224.730469 185.890625 217.957031 177.882812 L 229.925781 166.492188 C 235.34375 172.582031 240.992188 175.964844 249.007812 175.964844 C 255.554688 175.964844 260.183594 172.242188 260.183594 166.378906 C 260.097656 166.222656 261.460938 156.117188 244.714844 156.117188 L 237.492188 156.117188 L 234.78125 145.058594 L 260.132812 119.582031 L 249.972656 126.113281 L 222.589844 126.113281 L 222.589844 111.226562 L 275.988281 111.226562 L 275.988281 124.308594 L 256.007812 143.371094 C 266.730469 145.175781 277.230469 150.8125 277.230469 165.476562 M 227.667969 75.125 C 227.667969 67.976562 232.796875 62.222656 239.996094 62.222656 L 248.109375 62.222656 L 245.984375 63.28125 C 246.082031 82.875 245.597656 85.34375 246.847656 88.207031 L 240.085938 88.203125 C 232.886719 88.203125 227.667969 82.359375 227.667969 75.214844 Z M 239.996094 91.488281 L 247.199219 91.488281 L 247.199219 88.894531 C 247.726562 89.804688 248.433594 90.515625 249.472656 91.007812 C 251.765625 92.097656 250.101562 91.414062 315.8125 91.613281 L 315.8125 58.941406 L 312.347656 58.941406 L 312.347656 88.152344 C 312.347656 88.152344 252.261719 88.382812 251.121094 87.871094 C 250.128906 87.425781 249.769531 86.402344 249.601562 85.316406 C 249.339844 83.550781 249.5 83.519531 249.453125 58.941406 L 240.085938 58.941406 C 230.503906 58.941406 223.980469 66.539062 223.980469 75.214844 L 223.980469 75.304688 C 223.980469 83.980469 230.414062 91.488281 239.996094 91.488281 M 341.355469 55.476562 L 333.761719 55.476562 C 333.929688 52.964844 332.765625 48.277344 337.882812 48.277344 L 340.328125 48.277344 L 340.328125 50.691406 C 337.960938 50.867188 336.597656 50.117188 336.597656 52.007812 L 336.597656 52.808594 L 341.355469 52.808594 Z M 350.132812 91.96875 C 349.210938 91.96875 348.269531 91.839844 347.316406 91.578125 L 348.226562 88.246094 C 349.796875 88.691406 351.800781 88.71875 352.625 87.316406 C 353.589844 85.65625 353.246094 85.070312 353.296875 58.941406 L 356.761719 58.941406 C 356.664062 83.332031 357 84.011719 356.4375 86.839844 C 355.773438 90.148438 353.769531 91.96875 350.132812 91.96875 M 249.453125 55.476562 L 245.984375 55.476562 L 245.984375 52.015625 L 249.453125 52.015625 Z M 325.738281 67.425781 C 327.363281 64.253906 330.777344 62.492188 334.269531 62.453125 L 334.269531 62.449219 L 339.871094 62.449219 L 337.890625 63.433594 L 337.890625 78.984375 C 335.164062 78.902344 333.246094 79.242188 330.71875 78.441406 C 327.269531 77.355469 324.933594 74.699219 324.933594 70.84375 C 324.933594 69.605469 325.203125 68.464844 325.738281 67.425781 M 325.738281 79.699219 C 330.25 82.917969 336.402344 82.382812 336.726562 82.445312 L 337.890625 80.003906 C 337.703125 82.371094 338.542969 85.679688 336.332031 87.335938 C 334.460938 88.734375 331.128906 88.691406 329.074219 88.203125 C 328.222656 88 327.246094 87.652344 326.148438 87.164062 L 325.066406 90.496094 C 327.261719 91.308594 329.363281 91.96875 331.695312 91.96875 C 335.074219 91.96875 337.527344 91.167969 339.0625 89.566406 C 340.589844 87.964844 341.355469 85.808594 341.355469 83.09375 L 341.355469 58.941406 C 337.089844 59.078125 333.855469 58.511719 329.960938 59.851562 C 319.53125 63.441406 319.320312 75.125 325.738281 79.699219 M 242.519531 55.476562 L 239.050781 55.476562 L 239.050781 52.015625 L 242.519531 52.015625 Z M 206.640625 58.90625 L 210.222656 58.90625 L 210.222656 91.421875 L 207.292969 91.421875 L 184.238281 62.171875 L 186.277344 66.914062 L 186.277344 91.421875 L 182.695312 91.421875 L 182.695312 58.90625 L 186.136719 58.90625 L 208.148438 86.878906 L 206.640625 82.886719 Z M 71.460938 91.652344 L 57.464844 58.90625 L 61.554688 58.90625 C 61.765625 59.410156 72.917969 86.394531 74.050781 89.132812 L 73.695312 85.558594 L 84.757812 58.90625 L 88.707031 58.90625 L 74.714844 91.652344 Z M 133.480469 58.90625 L 137.152344 58.90625 L 137.152344 91.417969 L 133.480469 91.417969 Z M 172.871094 75.253906 C 172.871094 82.640625 167.574219 88.585938 160.132812 88.585938 C 152.695312 88.585938 147.300781 82.546875 147.300781 75.164062 L 147.300781 75.070312 C 147.300781 67.683594 152.601562 61.738281 160.039062 61.738281 C 167.480469 61.738281 172.871094 67.777344 172.871094 75.164062 Z M 160.132812 58.347656 C 150.230469 58.347656 143.488281 66.199219 143.488281 75.164062 L 143.488281 75.253906 C 143.488281 84.21875 150.136719 91.976562 160.039062 91.976562 C 169.945312 91.976562 176.6875 84.128906 176.6875 75.164062 L 176.6875 75.070312 C 176.6875 66.105469 170.035156 58.347656 160.132812 58.347656 M 127.417969 82.59375 L 127.417969 82.6875 C 127.417969 88.257812 122.769531 91.882812 116.308594 91.882812 C 111.144531 91.882812 106.914062 90.164062 103.011719 86.679688 L 105.289062 83.988281 C 108.683594 87.050781 111.9375 88.585938 116.449219 88.585938 C 120.816406 88.585938 123.699219 86.265625 123.699219 83.058594 L 123.699219 82.964844 C 123.699219 73.890625 104.3125 79.878906 104.3125 67.40625 L 104.3125 67.3125 C 104.3125 62.203125 108.820312 58.441406 115.007812 58.441406 C 119.746094 58.441406 123.140625 59.789062 126.441406 62.4375 L 124.304688 65.269531 C 116.925781 59.261719 107.984375 61.5625 107.984375 66.988281 L 107.984375 67.082031 C 107.984375 70.144531 109.65625 71.863281 116.820312 73.398438 C 124.074219 74.976562 127.417969 77.625 127.417969 82.59375 M 97.371094 91.421875 L 93.699219 91.421875 L 93.699219 58.90625 L 97.371094 58.90625 Z M 311.136719 95.074219 L 314.605469 95.074219 L 314.605469 98.539062 L 311.136719 98.539062 Z M 304.203125 95.074219 L 307.671875 95.074219 L 307.671875 98.539062 L 304.203125 98.539062 Z M 86.53125 175.175781 L 116.664062 175.175781 L 116.664062 190.179688 L 58.179688 190.179688 L 58.179688 176.417969 C 87.402344 151.59375 98.148438 146.742188 98.148438 135.925781 C 98.148438 129.273438 93.742188 125.664062 87.535156 125.664062 C 81.4375 125.664062 77.261719 129.042969 71.390625 136.261719 L 59.195312 126.453125 C 66.988281 115.851562 74.550781 110.097656 88.664062 110.097656 C 105.035156 110.097656 115.875 119.683594 115.875 134.460938 L 115.875 134.683594 C 115.875 153.210938 101.859375 159.183594 77.828125 178.570312 L 74.472656 181.15625 Z M 347.539062 150.925781 C 347.539062 164.460938 337.828125 175.515625 323.828125 175.515625 C 309.828125 175.515625 299.894531 164.234375 299.894531 150.699219 L 299.894531 150.476562 C 299.894531 136.941406 309.605469 125.886719 323.601562 125.886719 C 337.601562 125.886719 347.539062 137.167969 347.539062 150.699219 Z M 323.828125 109.871094 C 299.441406 109.871094 281.714844 128.257812 281.714844 150.699219 L 281.714844 150.925781 C 281.714844 173.371094 299.214844 191.53125 323.601562 191.53125 C 347.988281 191.53125 365.714844 173.144531 365.714844 150.699219 L 365.714844 150.476562 C 365.714844 128.03125 348.214844 109.871094 323.828125 109.871094 " fill-opacity="1" fill-rule="nonzero"/>
  </g>
  <path fill="#686d6a" d="M 182.326 182.891 L 188.468 188.775 L 182.573 194.913 L 176.435 189.022" fill-opacity="1" fill-rule="nonzero" style=""/>
  <path fill="#686d6a" d="M 196.376 189.022 L 202.514 194.913 L 208.409 188.775 L 202.267 182.891" fill-opacity="1" fill-rule="nonzero" style=""/>
  <path fill="#686d6a" d="M 187.732 196.752 L 192.514 201.335 L 197.098 196.56 L 192.323 191.977" fill-opacity="1" fill-rule="nonzero" style=""/>
  <path fill="#686d6a" d="M 205.258 199.374 L 210.038 203.959 L 214.624 199.185 L 209.841 194.599" fill-opacity="1" fill-rule="nonzero" style=""/>
  <path fill="#686d6a" d="M 179.919 204.056 L 184.695 208.639 L 189.282 203.863 L 184.508 199.28" fill-opacity="1" fill-rule="nonzero" style=""/>
  <path fill="#686d6a" d="M 195.959 204.614 L 200.734 209.197 L 205.323 204.421 L 200.542 199.836" fill-opacity="1" fill-rule="nonzero" style=""/>
  <path fill="#686d6a" d="M 189.68 210.102 L 193.047 213.325 L 196.271 209.969 L 192.909 206.74" fill-opacity="1" fill-rule="nonzero" style=""/>
  <path fill="#686d6a" d="M 202.363 212.636 L 205.733 215.86 L 208.954 212.498 L 205.592 209.275" fill-opacity="1" fill-rule="nonzero" style=""/>
  <path fill="#686d6a" d="M 230.069 187.079 L 240.496 185.171 L 242.409 195.59 L 231.976 197.506 L 230.069 187.079 Z M 230.069 187.079" fill-opacity="1" fill-rule="nonzero" style=""/>
  <path fill="#686d6a" d="M 216.457 191.447 L 224.822 189.914 L 226.355 198.279 L 217.986 199.815 L 216.457 191.447 Z M 216.457 191.447" fill-opacity="1" fill-rule="nonzero" style=""/>
  <path fill="#686d6a" d="M 232.629 203.104 L 241 201.563 L 242.533 209.928 L 234.162 211.461 L 232.629 203.104 Z M 232.629 203.104" fill-opacity="1" fill-rule="nonzero" style=""/>
  <path fill="#686d6a" d="M 221.093 204.325 L 227.605 203.132 L 228.801 209.64 L 222.281 210.834 L 221.093 204.325 Z M 221.093 204.325" fill-opacity="1" fill-rule="nonzero" style=""/>
  <path fill="#686d6a" d="M 233.769 216.693 L 240.287 215.499 L 241.477 222.007 L 234.959 223.205 L 233.769 216.693 Z M 233.769 216.693" fill-opacity="1" fill-rule="nonzero" style=""/>
  <path fill="#686d6a" d="M 211.328 206.974 L 217.846 205.776 L 219.041 212.288 L 212.52 213.482 L 211.328 206.974 Z M 211.328 206.974" fill-opacity="1" fill-rule="nonzero" style=""/>
  <path fill="#686d6a" d="M 223.155 215.499 L 229.667 214.309 L 230.861 220.814 L 224.347 222.012 L 223.155 215.499 Z M 223.155 215.499" fill-opacity="1" fill-rule="nonzero" style=""/>
  <path fill="#686d6a" d="M 214.85 216.285 L 219.435 215.445 L 220.273 220.023 L 215.69 220.868 L 214.85 216.285 Z M 214.85 216.285" fill-opacity="1" fill-rule="nonzero" style=""/>
  <path fill="#686d6a" d="M 223.658 225.758 L 228.243 224.92 L 229.076 229.497 L 224.491 230.33 L 223.658 225.758 Z M 223.658 225.758" fill-opacity="1" fill-rule="nonzero" style=""/>
  <path fill="#686d6a" d="M 261.091 221.224 L 256.532 230.792 L 266.113 235.339 L 270.664 225.775" fill-opacity="1" fill-rule="nonzero" style=""/>
  <path fill="#686d6a" d="M 247.495 216.802 L 243.84 224.476 L 251.52 228.125 L 255.177 220.451" fill-opacity="1" fill-rule="nonzero" style=""/>
  <path fill="#686d6a" d="M 253.779 235.704 L 250.124 243.388 L 257.812 247.037 L 261.467 239.359" fill-opacity="1" fill-rule="nonzero" style=""/>
  <path fill="#686d6a" d="M 243.713 229.952 L 240.867 235.927 L 246.854 238.773 L 249.699 232.794" fill-opacity="1" fill-rule="nonzero" style=""/>
  <path fill="#686d6a" d="M 246.752 247.394 L 243.904 253.368 L 249.885 256.216 L 252.737 250.235" fill-opacity="1" fill-rule="nonzero" style=""/>
  <path fill="#686d6a" d="M 234.248 226.393 L 231.395 232.366 L 237.381 235.214 L 240.227 229.233" fill-opacity="1" fill-rule="nonzero" style=""/>
  <path fill="#686d6a" d="M 238.85 240.223 L 235.996 246.197 L 241.982 249.041 L 244.828 243.064" fill-opacity="1" fill-rule="nonzero" style=""/>
  <path fill="#686d6a" d="M 231.652 236.003 L 229.644 240.212 L 233.851 242.212 L 235.859 238.006" fill-opacity="1" fill-rule="nonzero" style=""/>
  <path fill="#686d6a" d="M 231.239 253.016 L 233.234 248.816 L 237.441 250.815 L 235.446 255.023 L 231.239 253.016 Z M 231.239 253.016" fill-opacity="1" fill-rule="nonzero" style=""/>
  <path fill="#686d6a" d="M 266.25 267.037 L 256.949 272.129 L 262.056 281.422 L 271.355 276.325" fill-opacity="1" fill-rule="nonzero" style=""/>
  <path fill="#686d6a" d="M 257.82 255.508 L 250.36 259.593 L 254.451 267.05 L 261.91 262.958" fill-opacity="1" fill-rule="nonzero" style=""/>
  <path fill="#686d6a" d="M 251.844 274.515 L 244.379 278.6 L 248.478 286.054 L 255.932 281.967" fill-opacity="1" fill-rule="nonzero" style=""/>
  <path fill="#686d6a" d="M 247.05 263.963 L 241.238 267.144 L 244.426 272.943 L 250.239 269.764" fill-opacity="1" fill-rule="nonzero" style=""/>
  <path fill="#686d6a" d="M 239.299 279.884 L 233.485 283.064 L 236.673 288.863 L 242.486 285.684" fill-opacity="1" fill-rule="nonzero" style=""/>
  <path fill="#686d6a" d="M 241.456 255.539 L 235.644 258.719 L 238.831 264.526 L 244.644 261.344" fill-opacity="1" fill-rule="nonzero" style=""/>
  <path fill="#686d6a" d="M 237.085 269.444 L 231.276 272.627 L 234.461 278.426 L 240.268 275.244" fill-opacity="1" fill-rule="nonzero" style=""/>
  <path fill="#686d6a" d="M 233.713 261.816 L 229.626 264.057 L 231.875 268.14 L 235.955 265.904" fill-opacity="1" fill-rule="nonzero" style=""/>
  <path fill="#686d6a" d="M 227.5 273.148 L 223.415 275.389 L 225.655 279.469 L 229.74 277.233" fill-opacity="1" fill-rule="nonzero" style=""/>
  <path fill="#686d6a" d="M 231.765 316.386 L 233.065 305.868 L 243.588 307.17 L 242.293 317.691 L 231.765 316.386 Z M 231.765 316.386" fill-opacity="1" fill-rule="nonzero" style=""/>
  <path fill="#686d6a" d="M 234.038 300.328 L 235.081 291.891 L 243.521 292.941 L 242.48 301.371 L 234.038 300.328 Z M 234.038 300.328" fill-opacity="1" fill-rule="nonzero" style=""/>
  <path fill="#686d6a" d="M 218.055 312.251 L 219.1 303.815 L 227.543 304.857 L 226.501 313.295 L 218.055 312.251 Z M 218.055 312.251" fill-opacity="1" fill-rule="nonzero" style=""/>
  <path fill="#686d6a" d="M 222.455 299.273 L 223.263 292.705 L 229.843 293.519 L 229.027 300.089 L 222.455 299.273 Z M 222.455 299.273" fill-opacity="1" fill-rule="nonzero" style=""/>
  <path fill="#686d6a" d="M 206.84 307.642 L 207.649 301.075 L 214.221 301.889 L 213.413 308.46 L 206.84 307.642 Z M 206.84 307.642" fill-opacity="1" fill-rule="nonzero" style=""/>
  <path fill="#686d6a" d="M 222.844 289.151 L 223.653 282.587 L 230.23 283.401 L 229.416 289.974 L 222.844 289.151 Z M 222.844 289.151" fill-opacity="1" fill-rule="nonzero" style=""/>
  <path fill="#686d6a" d="M 211.161 297.869 L 211.968 291.305 L 218.548 292.119 L 217.734 298.686 L 211.161 297.869 Z M 211.161 297.869" fill-opacity="1" fill-rule="nonzero" style=""/>
  <path fill="#686d6a" d="M 215.091 288.032 L 215.658 283.412 L 220.278 283.982 L 219.71 288.601 L 215.091 288.032 Z M 215.091 288.032" fill-opacity="1" fill-rule="nonzero" style=""/>
  <path fill="#686d6a" d="M 203.401 293.575 L 203.968 288.955 L 208.596 289.531 L 208.025 294.15 L 203.401 293.575 Z M 203.401 293.575" fill-opacity="1" fill-rule="nonzero" style=""/>
  <path fill="#686d6a" d="M 201.712 326.548 L 193.934 319.338 L 186.718 327.106 L 194.491 334.314" fill-opacity="1" fill-rule="nonzero" style=""/>
  <path fill="#686d6a" d="M 200.278 178.142 L 192.502 170.928 L 185.288 178.692 L 193.06 185.899" fill-opacity="1" fill-rule="nonzero" style=""/>
  <path fill="#686d6a" d="M 210.005 314.918 L 203.766 309.129 L 197.978 315.361 L 204.215 321.143" fill-opacity="1" fill-rule="nonzero" style=""/>
  <path fill="#686d6a" d="M 190.064 315.247 L 183.825 309.466 L 178.037 315.691 L 184.274 321.473" fill-opacity="1" fill-rule="nonzero" style=""/>
  <path fill="#686d6a" d="M 198.576 307.376 L 193.718 302.868 L 189.21 307.72 L 194.065 312.221" fill-opacity="1" fill-rule="nonzero" style=""/>
  <path fill="#686d6a" d="M 181.009 305.044 L 176.156 300.544 L 171.65 305.391 L 176.503 309.897" fill-opacity="1" fill-rule="nonzero" style=""/>
  <path fill="#686d6a" d="M 204.809 299.415 L 199.954 294.913 L 195.45 299.758 L 200.304 304.262" fill-opacity="1" fill-rule="nonzero" style=""/>
  <path fill="#686d6a" d="M 190.225 299.657 L 185.371 295.151 L 180.866 300.003 L 185.719 304.504" fill-opacity="1" fill-rule="nonzero" style=""/>
  <path fill="#686d6a" d="M 196.402 294.059 L 192.987 290.892 L 189.822 294.305 L 193.23 297.469" fill-opacity="1" fill-rule="nonzero" style=""/>
  <path fill="#686d6a" d="M 183.681 291.735 L 180.264 288.571 L 177.097 291.981 L 180.511 295.151" fill-opacity="1" fill-rule="nonzero" style=""/>
  <path fill="#686d6a" d="M 143.926 309.44 L 154.327 307.35 L 156.407 317.74 L 146.003 319.826 L 143.926 309.44 Z M 143.926 309.44" fill-opacity="1" fill-rule="nonzero" style=""/>
  <path fill="#686d6a" d="M 159.934 306.489 L 168.276 304.816 L 169.941 313.149 L 161.599 314.822 L 159.934 306.489 Z M 159.934 306.489" fill-opacity="1" fill-rule="nonzero" style=""/>
  <path fill="#686d6a" d="M 143.576 295.096 L 151.917 293.426 L 153.59 301.76 L 145.249 303.43 L 143.576 295.096 Z M 143.576 295.096" fill-opacity="1" fill-rule="nonzero" style=""/>
  <path fill="#686d6a" d="M 157.299 295.169 L 163.794 293.867 L 165.093 300.357 L 158.599 301.659 L 157.299 295.169 Z M 157.299 295.169" fill-opacity="1" fill-rule="nonzero" style=""/>
  <path fill="#686d6a" d="M 167.018 292.357 L 173.512 291.053 L 174.815 297.548 L 168.317 298.847 L 167.018 292.357 Z M 167.018 292.357" fill-opacity="1" fill-rule="nonzero" style=""/>
  <path fill="#686d6a" d="M 155.046 284.029 L 161.54 282.721 L 162.842 289.213 L 156.345 290.519 L 155.046 284.029 Z M 155.046 284.029" fill-opacity="1" fill-rule="nonzero" style=""/>
  <path fill="#686d6a" d="M 165.645 284.651 L 170.216 283.736 L 171.126 288.301 L 166.562 289.219 L 165.645 284.651 Z M 165.645 284.651" fill-opacity="1" fill-rule="nonzero" style=""/>
  <path fill="#686d6a" d="M 156.692 275.329 L 161.26 274.411 L 162.176 278.979 L 157.606 279.894 L 156.692 275.329 Z M 156.692 275.329" fill-opacity="1" fill-rule="nonzero" style=""/>
  <path fill="#686d6a" d="M 124.822 284.125 L 129.222 274.484 L 119.567 270.093 L 115.168 279.726" fill-opacity="1" fill-rule="nonzero" style=""/>
  <path fill="#686d6a" d="M 138.49 288.319 L 142.014 280.584 L 134.272 277.062 L 130.741 284.797" fill-opacity="1" fill-rule="nonzero" style=""/>
  <path fill="#686d6a" d="M 131.886 269.517 L 135.416 261.783 L 127.668 258.257 L 124.146 265.995" fill-opacity="1" fill-rule="nonzero" style=""/>
  <path fill="#686d6a" d="M 136.015 272.375 L 138.759 266.347 L 144.787 269.1 L 142.042 275.124 L 136.015 272.375 Z M 136.015 272.375" fill-opacity="1" fill-rule="nonzero" style=""/>
  <path fill="#686d6a" d="M 150.12 290.166 L 152.864 284.143 L 146.836 281.404 L 144.087 287.426" fill-opacity="1" fill-rule="nonzero" style=""/>
  <path fill="#686d6a" d="M 132.708 254.977 L 135.451 248.953 L 141.475 251.702 L 138.73 257.726 L 132.708 254.977 Z M 132.708 254.977" fill-opacity="1" fill-rule="nonzero" style=""/>
  <path fill="#686d6a" d="M 145.56 275.765 L 148.304 269.74 L 154.327 272.494 L 151.582 278.517 L 145.56 275.765 Z M 145.56 275.765" fill-opacity="1" fill-rule="nonzero" style=""/>
  <path fill="#686d6a" d="M 140.725 262.026 L 143.47 256.004 L 149.497 258.755 L 146.748 264.779 L 140.725 262.026 Z M 140.725 262.026" fill-opacity="1" fill-rule="nonzero" style=""/>
  <path fill="#686d6a" d="M 154.015 268.851 L 155.946 264.618 L 151.702 262.687 L 149.772 266.923" fill-opacity="1" fill-rule="nonzero" style=""/>
  <path fill="#686d6a" d="M 152.205 256.06 L 154.14 251.818 L 149.899 249.887 L 147.964 254.131" fill-opacity="1" fill-rule="nonzero" style=""/>
  <path fill="#686d6a" d="M 118.901 238.395 L 128.117 233.152 L 122.857 223.95 L 113.648 229.192" fill-opacity="1" fill-rule="nonzero" style=""/>
  <path fill="#686d6a" d="M 127.526 249.791 L 134.92 245.579 L 130.7 238.197 L 123.313 242.409" fill-opacity="1" fill-rule="nonzero" style=""/>
  <path fill="#686d6a" d="M 133.187 230.683 L 140.58 226.476 L 136.362 219.089 L 128.97 223.301" fill-opacity="1" fill-rule="nonzero" style=""/>
  <path fill="#686d6a" d="M 138.155 241.157 L 143.908 237.881 L 140.629 232.128 L 134.871 235.406" fill-opacity="1" fill-rule="nonzero" style=""/>
  <path fill="#686d6a" d="M 145.646 225.112 L 151.395 221.833 L 148.112 216.088 L 142.36 219.367" fill-opacity="1" fill-rule="nonzero" style=""/>
  <path fill="#686d6a" d="M 143.887 249.485 L 149.64 246.21 L 146.363 240.457 L 140.605 243.732" fill-opacity="1" fill-rule="nonzero" style=""/>
  <path fill="#686d6a" d="M 148.024 235.513 L 153.782 232.234 L 150.498 226.484 L 144.746 229.768" fill-opacity="1" fill-rule="nonzero" style=""/>
  <path fill="#686d6a" d="M 151.522 243.077 L 155.574 240.775 L 153.261 236.729 L 149.209 239.03" fill-opacity="1" fill-rule="nonzero" style=""/>
  <path fill="#686d6a" d="M 157.551 231.647 L 161.599 229.342 L 159.286 225.296 L 155.237 227.605" fill-opacity="1" fill-rule="nonzero" style=""/>
  <path fill="#686d6a" d="M 140.886 197.867 L 142.014 187.332 L 152.553 188.459 L 151.432 198.992 L 140.886 197.867 Z M 140.886 197.867" fill-opacity="1" fill-rule="nonzero" style=""/>
  <path fill="#686d6a" d="M 141.205 212.138 L 142.102 203.69 L 150.571 204.595 L 149.666 213.043 L 141.205 212.138 Z M 141.205 212.138" fill-opacity="1" fill-rule="nonzero" style=""/>
  <path fill="#686d6a" d="M 156.983 199.95 L 157.885 191.502 L 166.346 192.407 L 165.441 200.862 L 156.983 199.95 Z M 156.983 199.95" fill-opacity="1" fill-rule="nonzero" style=""/>
  <path fill="#686d6a" d="M 154.885 211.36 L 155.585 204.774 L 162.176 205.482 L 161.468 212.067 L 154.885 211.36 Z M 154.885 211.36" fill-opacity="1" fill-rule="nonzero" style=""/>
  <path fill="#686d6a" d="M 170.338 202.701 L 171.044 196.116 L 177.629 196.822 L 176.926 203.403 L 170.338 202.701 Z M 170.338 202.701" fill-opacity="1" fill-rule="nonzero" style=""/>
  <path fill="#686d6a" d="M 154.651 221.457 L 155.351 214.876 L 161.936 215.585 L 161.236 222.163 L 154.651 221.457 Z M 154.651 221.457" fill-opacity="1" fill-rule="nonzero" style=""/>
  <path fill="#686d6a" d="M 166.19 212.539 L 166.897 205.959 L 173.482 206.667 L 172.781 213.246 L 166.19 212.539 Z M 166.19 212.539" fill-opacity="1" fill-rule="nonzero" style=""/>
  <path fill="#686d6a" d="M 164.59 220.724 L 165.088 216.093 L 169.721 216.592 L 169.223 221.216 L 164.59 220.724 Z M 164.59 220.724" fill-opacity="1" fill-rule="nonzero" style=""/>
  <path fill="#686d6a" d="M 176.184 214.973 L 176.677 210.34 L 181.314 210.838 L 180.822 215.466 L 176.184 214.973 Z M 176.184 214.973" fill-opacity="1" fill-rule="nonzero" style=""/>
  <path fill="#686d6a" d="M 226.222 259.129 C 220.675 255.928 212.951 254.999 204.947 257.928 C 201.447 259.253 197.944 261.564 194.989 263.832 C 193.129 252.535 194.035 242.052 194.465 236.903 C 194.473 236.874 194.501 236.861 194.533 236.879 C 198.527 239.39 197.409 246.425 196.569 248.437 C 196.55 248.474 196.61 248.504 196.642 248.466 C 201.621 242.583 199.189 236.08 198.163 234.434 C 197.978 234.141 199.103 235.038 200.034 236.226 C 203.515 240.667 201.904 245.646 202.293 245.53 C 202.303 245.525 202.316 245.53 202.316 245.519 C 204.636 240.972 203.893 235.214 199.129 231.048 C 198.91 230.865 199.765 231.145 200.034 231.241 C 204.088 232.65 206.204 236.83 206.176 240.566 C 206.176 241.38 208.92 233.554 202.293 229.576 C 201.051 228.834 199.782 228.424 198.949 228.323 C 198.301 228.258 202.495 227.622 205.441 229.622 C 207.219 230.816 207.677 232.265 207.636 231.858 C 207.12 226.613 200.95 224.549 197.205 226.119 C 196.81 226.315 198.678 223.548 202.293 223.763 C 202.988 223.799 203.635 223.95 204.144 224.194 C 204.179 224.212 204.215 224.165 204.191 224.134 C 201.46 221.014 196.971 220.946 194.587 224.559 C 194.574 224.583 194.538 224.583 194.52 224.559 C 193.614 222.943 192.86 220.868 192.536 218.91 C 192.458 218.413 192.291 221.33 190.481 224.559 C 190.466 224.583 190.434 224.583 190.416 224.559 C 188.025 220.941 183.543 221.014 180.816 224.134 C 180.786 224.165 180.816 224.212 180.859 224.194 C 182.679 223.333 186.121 223.589 187.841 226.059 C 187.864 226.093 187.828 226.136 187.792 226.119 C 183.939 224.5 177.88 226.699 177.367 231.858 C 177.367 231.9 177.419 231.922 177.442 231.889 C 177.618 231.565 178.037 230.876 178.836 230.18 C 181.914 227.459 186.767 228.25 186.054 228.323 C 184.16 228.556 180.272 230.245 178.836 234.104 C 177.661 237.263 178.791 241.416 178.836 240.384 C 178.868 236.879 180.876 232.175 185.838 230.984 C 185.872 230.971 185.904 231.026 185.872 231.048 C 178.168 237.832 182.829 246.155 182.757 245.501 C 182.519 242.811 182.321 238.011 186.772 234.387 C 186.808 234.364 186.862 234.398 186.836 234.434 C 185.812 236.08 183.38 242.583 188.363 248.466 C 188.391 248.504 188.451 248.474 188.432 248.437 C 187.594 246.425 186.479 239.39 190.47 236.879 C 190.494 236.861 190.53 236.874 190.53 236.903 C 190.968 242.052 191.879 252.535 190.014 263.832 C 183.681 258.989 177.455 255.814 169.427 256.167 C 165.387 256.341 161.558 257.516 158.772 259.129 C 158.676 259.189 158.749 259.331 158.856 259.294 C 170.53 255.563 180.63 260.091 190.025 267.917 C 185.281 272.056 180.977 276.385 178.475 277.695 C 177.891 276.894 176.879 276.432 175.771 276.678 C 173.681 277.132 173.183 279.752 174.315 280.878 C 178.42 284.971 184.832 276.844 192.502 270.056 C 199.883 276.58 206.588 284.971 210.686 280.878 C 211.01 280.548 211.386 279.469 211.195 278.619 C 210.705 276.478 207.864 275.863 206.528 277.695 C 204.119 276.478 199.894 272.206 194.976 267.917 C 204.438 260.026 214.427 255.617 226.145 259.294 C 226.254 259.331 226.327 259.189 226.222 259.129" fill-opacity="1" fill-rule="nonzero" style=""/>
  <g clip-path="url(#id2)" transform="matrix(1.533927, 0, 0, 1.533927, -69.092941, 22.3218)" style="">
    <path fill="#686d6a" d="M 168.171875 227.261719 L 170.15625 227.261719 L 170.15625 209.480469 L 168.171875 209.480469 Z M 116.191406 225.28125 L 113.09375 217.675781 C 116.300781 214.957031 120.277344 215.457031 122.835938 217.675781 L 119.738281 225.28125 Z M 105.253906 225.28125 C 103.695312 225.234375 102.597656 225.429688 101.152344 224.972656 C 95.789062 223.277344 97.246094 215.816406 103.246094 215.816406 L 105.253906 215.816406 Z M 160.410156 225.28125 C 157.214844 225.183594 154.335938 225.84375 152.871094 223.300781 C 153.160156 222.027344 153 220.886719 153.046875 215.050781 L 151.0625 215.050781 L 151.0625 221.761719 C 151.0625 226.691406 145.121094 226.371094 143.71875 223.410156 C 143.15625 222.222656 143.5 221.722656 143.398438 215.050781 L 141.414062 215.050781 L 141.414062 221.914062 C 141.414062 224.152344 140.011719 225.28125 138.066406 225.28125 L 134.222656 225.28125 L 134.222656 215.050781 L 132.238281 215.050781 L 132.238281 225.28125 L 121.820312 225.28125 L 125.292969 216.980469 C 123.324219 215.257812 120.582031 213.636719 117.953125 213.636719 C 115.28125 213.636719 112.59375 215.1875 110.613281 216.980469 L 114.109375 225.28125 L 107.238281 225.28125 L 107.238281 213.8125 L 104.066406 213.8125 C 99.578125 213.8125 95.855469 216.390625 95.855469 220.625 C 95.855469 228.152344 105.085938 227.226562 105.253906 227.261719 C 105.222656 227.507812 105.503906 229.207031 104.363281 230.0625 C 103.296875 230.863281 101.394531 230.839844 100.207031 230.558594 C 99.71875 230.441406 99.164062 230.246094 98.535156 229.964844 L 97.914062 231.871094 C 99.171875 232.335938 100.375 232.714844 101.707031 232.714844 C 105.488281 232.714844 107.238281 230.828125 107.238281 227.632812 L 107.238281 227.261719 C 139.617188 227.058594 138.660156 227.730469 140.632812 226.644531 C 141.382812 226.230469 141.992188 225.679688 142.453125 224.984375 C 142.933594 225.777344 143.585938 226.398438 144.414062 226.84375 C 146.148438 227.773438 148.796875 227.6875 150.402344 226.890625 C 151.238281 226.480469 151.878906 225.84375 152.324219 224.984375 C 153.089844 226.292969 154.28125 227.132812 156.667969 227.238281 L 156.667969 227.261719 L 162.394531 227.261719 L 162.394531 209.480469 L 160.410156 209.480469 Z M 338.421875 224.402344 C 336.667969 228.507812 330.625 228.625 328.875 224.339844 C 328.363281 223.082031 328.363281 221.589844 328.875 220.3125 C 330.992188 215.0625 338.832031 216.570312 338.832031 222.332031 C 338.832031 223.074219 338.695312 223.765625 338.421875 224.402344 M 319.179688 224.402344 C 317.660156 227.929688 313.089844 228.453125 310.695312 225.988281 C 308.734375 223.957031 308.792969 220.648438 310.6875 218.65625 C 312.230469 217.015625 314.605469 216.75 316.425781 217.5 C 319.292969 218.699219 320.25 221.914062 319.179688 224.402344 M 270.929688 225.28125 C 269.414062 225.234375 268.3125 225.433594 266.875 224.960938 C 261.652344 223.242188 262.898438 215.792969 268.96875 215.792969 L 270.929688 215.792969 Z M 347.015625 225.28125 L 340.199219 225.28125 C 342.324219 220.605469 339.019531 215.125 333.574219 215.125 C 328.5625 215.125 325.054688 220.265625 327.101562 225.28125 L 320.953125 225.28125 C 323.027344 220.742188 319.882812 215.125 314.332031 215.125 C 309.3125 215.125 305.808594 220.269531 307.859375 225.28125 L 301.558594 225.28125 L 301.558594 209.480469 L 299.574219 209.480469 L 299.574219 225.28125 L 293.25 225.28125 C 293.144531 223.246094 293.714844 220.234375 292.011719 218.332031 C 290.855469 217.027344 289.570312 216.621094 287.820312 216.621094 L 279.039062 216.621094 L 282.773438 209.480469 L 280.617188 209.480469 L 276.808594 216.597656 C 276.929688 217.386719 277.171875 218.003906 277.703125 218.605469 C 287.625 218.6875 288.269531 218.394531 289.445312 218.890625 C 290.363281 219.269531 290.925781 219.964844 291.117188 220.808594 C 291.355469 221.828125 291.234375 222.59375 291.269531 225.28125 L 272.914062 225.28125 L 272.914062 213.8125 L 269.789062 213.8125 C 264.53125 213.8125 261.605469 216.941406 261.605469 220.546875 C 261.605469 225.070312 265.238281 227.261719 269.789062 227.261719 L 309.148438 227.261719 C 312.066406 230.410156 316.980469 230.144531 319.664062 227.261719 L 328.390625 227.261719 C 331.300781 230.402344 336.210938 230.152344 338.910156 227.261719 L 349 227.261719 L 349 209.480469 L 347.015625 209.480469 Z M 354.777344 227.261719 L 356.761719 227.261719 L 356.761719 209.480469 L 354.777344 209.480469 Z M 208.597656 231.625 L 210.636719 231.625 L 210.636719 229.589844 L 208.597656 229.589844 Z M 227.996094 225.28125 L 224.894531 217.675781 C 228.078125 214.980469 232.050781 215.433594 234.640625 217.675781 L 231.542969 225.28125 Z M 242.054688 225.28125 L 233.625 225.28125 L 237.097656 216.980469 C 235.121094 215.25 232.371094 213.636719 229.757812 213.636719 C 227.078125 213.636719 224.394531 215.195312 222.414062 216.980469 L 225.910156 225.28125 L 218.523438 225.28125 L 218.523438 213.8125 L 216.539062 213.8125 L 216.539062 227.683594 C 216.539062 229.4375 216.410156 230.730469 214.652344 230.730469 C 214.246094 230.730469 214.027344 230.695312 213.636719 230.582031 L 213.117188 232.492188 C 214.773438 232.945312 216.730469 232.792969 217.703125 231.363281 C 218.582031 230.066406 218.480469 228.28125 218.523438 227.261719 L 244.042969 227.261719 L 244.042969 209.480469 L 242.054688 209.480469 Z M 91.441406 215.546875 C 89.234375 213.136719 86.683594 214.007812 85.8125 213.8125 L 85.8125 215.792969 C 87.257812 215.847656 87.929688 215.632812 88.910156 216.101562 C 89.738281 216.5 90.320312 217.140625 90.5625 218.046875 C 90.828125 219.085938 90.679688 219.898438 90.722656 225.28125 L 81.421875 225.28125 L 81.421875 227.261719 L 92.707031 227.261719 C 92.625 219.753906 92.910156 218.957031 92.394531 217.277344 C 92.1875 216.601562 91.871094 216.023438 91.441406 215.546875 M 201.347656 231.648438 L 203.382812 231.648438 L 203.382812 229.613281 L 201.347656 229.613281 Z M 189.28125 225.28125 C 187.769531 225.234375 186.667969 225.433594 185.226562 224.960938 C 179.996094 223.242188 181.257812 215.792969 187.324219 215.792969 L 189.28125 215.792969 Z M 210.609375 213.8125 L 208.628906 213.8125 L 208.628906 225.28125 L 201.136719 225.28125 L 201.136719 213.8125 L 199.152344 213.8125 L 199.152344 225.28125 L 191.265625 225.28125 L 191.265625 213.8125 C 188.773438 213.890625 185.050781 213.304688 182.191406 215.730469 C 178.136719 219.167969 179.179688 227.261719 188.144531 227.261719 L 210.609375 227.261719 Z M 197.871094 231.648438 L 199.910156 231.648438 L 199.910156 229.613281 L 197.871094 229.613281 Z M 65.289062 209.480469 L 63.25 209.480469 L 63.25 211.515625 L 65.289062 211.515625 Z M 269.429688 209.480469 L 267.390625 209.480469 L 267.390625 211.515625 L 269.429688 211.515625 Z M 191.257812 209.480469 L 189.21875 209.480469 L 189.21875 211.515625 L 191.257812 211.515625 Z M 76.992188 231.648438 L 79.03125 231.648438 L 79.03125 229.613281 L 76.992188 229.613281 Z M 187.78125 209.480469 L 185.746094 209.480469 L 185.746094 211.515625 L 187.78125 211.515625 Z M 68.765625 209.480469 L 66.726562 209.480469 L 66.726562 211.515625 L 68.765625 211.515625 Z M 73.515625 231.648438 L 75.554688 231.648438 L 75.554688 229.613281 L 73.515625 229.613281 Z M 66.789062 225.28125 C 65.277344 225.234375 64.171875 225.433594 62.734375 224.960938 C 57.511719 223.246094 58.746094 215.792969 64.832031 215.792969 L 66.789062 215.792969 Z M 78.644531 213.8125 L 76.660156 213.8125 L 76.660156 225.28125 L 68.773438 225.28125 L 68.773438 213.8125 C 66.394531 213.882812 64.503906 213.574219 62.273438 214.316406 C 60.40625 214.945312 58.878906 216.101562 58.046875 217.875 C 57.179688 219.71875 57.335938 222.066406 58.136719 223.570312 C 59.570312 226.285156 62.578125 227.261719 65.648438 227.261719 L 78.644531 227.261719 Z M 249.820312 227.261719 L 251.804688 227.261719 L 251.804688 209.480469 L 249.820312 209.480469 Z M 272.902344 209.480469 L 270.867188 209.480469 L 270.867188 211.515625 L 272.902344 211.515625 Z M 272.902344 209.480469 " fill-opacity="1" fill-rule="nonzero"/>
  </g>
  <g clip-path="url(#id3)" transform="matrix(1.533927, 0, 0, 1.533927, -69.092941, 22.3218)" style="">
    <path fill="#686d6a" d="M 59.40625 240.285156 L 61.898438 240.285156 L 61.898438 247.40625 L 68.636719 240.285156 L 71.695312 240.285156 L 65.804688 246.375 L 71.957031 254.441406 L 68.941406 254.441406 L 64.105469 248.074219 L 61.898438 250.339844 L 61.898438 254.441406 L 59.40625 254.441406 " fill-opacity="1" fill-rule="nonzero"/>
  </g>
  <g clip-path="url(#id4)" transform="matrix(1.533927, 0, 0, 1.533927, -69.092941, 22.3218)" style="">
    <path fill="#686d6a" d="M 74.230469 240.285156 L 76.71875 240.285156 L 76.71875 254.441406 L 74.230469 254.441406 Z M 74.230469 240.285156 " fill-opacity="1" fill-rule="nonzero"/>
  </g>
  <g clip-path="url(#id5)" transform="matrix(1.533927, 0, 0, 1.533927, -69.092941, 22.3218)" style="">
    <path fill="#686d6a" d="M 80.554688 240.285156 L 82.863281 240.285156 L 90.453125 250.074219 L 90.453125 240.285156 L 92.902344 240.285156 L 92.902344 254.441406 L 90.816406 254.441406 L 83.003906 244.371094 L 83.003906 254.441406 L 80.554688 254.441406 " fill-opacity="1" fill-rule="nonzero"/>
  </g>
  <g clip-path="url(#id6)" transform="matrix(1.533927, 0, 0, 1.533927, -69.092941, 22.3218)" style="">
    <path fill="#686d6a" d="M 95.984375 247.40625 L 95.984375 247.363281 C 95.984375 243.402344 99.023438 240.042969 103.292969 240.042969 C 105.761719 240.042969 107.28125 240.730469 108.738281 241.964844 L 107.160156 243.847656 C 103.324219 240.582031 98.597656 242.933594 98.597656 247.324219 L 98.597656 247.363281 C 98.597656 250.277344 100.519531 252.421875 103.414062 252.421875 C 104.75 252.421875 105.964844 251.996094 106.835938 251.347656 L 106.835938 248.699219 L 103.210938 248.699219 L 103.210938 246.535156 L 109.246094 246.535156 L 109.246094 252.480469 C 104.179688 256.8125 95.984375 254.585938 95.984375 247.40625 " fill-opacity="1" fill-rule="nonzero"/>
  </g>
  <g clip-path="url(#id7)" transform="matrix(1.533927, 0, 0, 1.533927, -69.092941, 22.3218)" style="">
    <path fill="#686d6a" d="M 117.96875 252.175781 C 124.578125 252.175781 124.5 242.550781 117.96875 242.550781 L 115.175781 242.550781 L 115.175781 252.175781 Z M 112.683594 240.285156 L 117.96875 240.285156 C 128.078125 240.285156 127.941406 254.441406 117.96875 254.441406 L 112.683594 254.441406 Z M 112.683594 240.285156 " fill-opacity="1" fill-rule="nonzero"/>
  </g>
  <g clip-path="url(#id8)" transform="matrix(1.533927, 0, 0, 1.533927, -69.092941, 22.3218)" style="">
    <path fill="#686d6a" d="M 140.039062 247.40625 L 140.039062 247.363281 C 140.039062 244.613281 138.035156 242.332031 135.21875 242.332031 C 132.40625 242.332031 130.445312 244.574219 130.445312 247.324219 L 130.445312 247.363281 C 130.445312 250.117188 132.449219 252.402344 135.261719 252.402344 C 138.074219 252.402344 140.039062 250.15625 140.039062 247.40625 M 127.832031 247.40625 L 127.832031 247.363281 C 127.832031 243.382812 130.910156 240.042969 135.261719 240.042969 C 139.613281 240.042969 142.652344 243.339844 142.652344 247.324219 L 142.652344 247.363281 C 142.652344 251.347656 139.574219 254.683594 135.21875 254.683594 C 130.867188 254.683594 127.832031 251.390625 127.832031 247.40625 " fill-opacity="1" fill-rule="nonzero"/>
  </g>
  <g clip-path="url(#id9)" transform="matrix(1.533927, 0, 0, 1.533927, -69.092941, 22.3218)" style="">
    <path fill="#686d6a" d="M 145.742188 240.285156 L 148.394531 240.285156 L 152.707031 246.980469 L 157.019531 240.285156 L 159.671875 240.285156 L 159.671875 254.441406 L 157.179688 254.441406 L 157.179688 244.289062 L 152.707031 250.964844 L 152.628906 250.964844 L 148.195312 244.332031 L 148.195312 254.441406 L 145.742188 254.441406 " fill-opacity="1" fill-rule="nonzero"/>
  </g>
  <g clip-path="url(#id10)" transform="matrix(1.533927, 0, 0, 1.533927, -69.092941, 22.3218)" style="">
    <path fill="#686d6a" d="M 180.976562 247.40625 L 180.976562 247.363281 C 180.976562 244.613281 178.972656 242.332031 176.15625 242.332031 C 173.34375 242.332031 171.378906 244.574219 171.378906 247.324219 L 171.378906 247.363281 C 171.378906 250.117188 173.382812 252.402344 176.195312 252.402344 C 179.011719 252.402344 180.976562 250.15625 180.976562 247.40625 M 168.769531 247.40625 L 168.769531 247.363281 C 168.769531 243.382812 171.84375 240.042969 176.195312 240.042969 C 180.550781 240.042969 183.585938 243.339844 183.585938 247.324219 L 183.585938 247.363281 C 183.585938 251.347656 180.507812 254.683594 176.15625 254.683594 C 171.804688 254.683594 168.769531 251.390625 168.769531 247.40625 " fill-opacity="1" fill-rule="nonzero"/>
  </g>
  <g clip-path="url(#id11)" transform="matrix(1.533927, 0, 0, 1.533927, -69.092941, 22.3218)" style="">
    <path fill="#686d6a" d="M 186.679688 240.285156 L 197.226562 240.285156 L 197.226562 242.550781 L 189.171875 242.550781 L 189.171875 246.414062 L 196.316406 246.414062 L 196.316406 248.679688 L 189.171875 248.679688 L 189.171875 254.441406 L 186.679688 254.441406 " fill-opacity="1" fill-rule="nonzero"/>
  </g>
  <g clip-path="url(#id12)" transform="matrix(1.533927, 0, 0, 1.533927, -69.092941, 22.3218)" style="">
    <path fill="#686d6a" d="M 205.085938 252.382812 L 206.585938 250.601562 C 207.941406 251.773438 209.296875 252.441406 211.058594 252.441406 C 212.597656 252.441406 213.570312 251.734375 213.570312 250.660156 L 213.570312 250.621094 C 213.570312 247.460938 205.652344 249.617188 205.652344 244.230469 L 205.652344 244.191406 C 205.652344 239.84375 211.726562 238.738281 215.632812 241.863281 L 214.296875 243.746094 C 211.039062 241.316406 208.144531 242.273438 208.144531 243.96875 L 208.144531 244.007812 C 208.144531 247.128906 216.058594 245.15625 216.058594 250.378906 L 216.058594 250.417969 C 216.058594 255.382812 209.027344 255.894531 205.085938 252.382812 " fill-opacity="1" fill-rule="nonzero"/>
  </g>
  <g clip-path="url(#id13)" transform="matrix(1.533927, 0, 0, 1.533927, -69.092941, 22.3218)" style="">
    <path fill="#686d6a" d="M 227.253906 248.820312 L 224.804688 243.160156 L 222.375 248.820312 Z M 223.691406 240.1875 L 225.996094 240.1875 L 232.230469 254.441406 L 229.601562 254.441406 L 228.164062 251.023438 L 221.460938 251.023438 L 220.007812 254.441406 L 217.453125 254.441406 Z M 223.691406 240.1875 " fill-opacity="1" fill-rule="nonzero"/>
  </g>
  <g clip-path="url(#id14)" transform="matrix(1.533927, 0, 0, 1.533927, -69.092941, 22.3218)" style="">
    <path fill="#686d6a" d="M 233.695312 248.4375 L 233.695312 240.285156 L 236.1875 240.285156 L 236.1875 248.335938 C 236.1875 250.964844 237.542969 252.382812 239.769531 252.382812 C 241.976562 252.382812 243.332031 251.046875 243.332031 248.4375 L 243.332031 240.285156 L 245.824219 240.285156 L 245.824219 248.316406 C 245.824219 252.542969 243.433594 254.667969 239.730469 254.667969 C 236.042969 254.667969 233.695312 252.542969 233.695312 248.4375 " fill-opacity="1" fill-rule="nonzero"/>
  </g>
  <g clip-path="url(#id15)" transform="matrix(1.533927, 0, 0, 1.533927, -69.092941, 22.3218)" style="">
    <path fill="#686d6a" d="M 254.75 252.175781 C 261.359375 252.175781 261.28125 242.550781 254.75 242.550781 L 251.957031 242.550781 L 251.957031 252.175781 Z M 249.46875 240.285156 L 254.75 240.285156 C 264.863281 240.285156 264.726562 254.441406 254.75 254.441406 L 249.46875 254.441406 Z M 249.46875 240.285156 " fill-opacity="1" fill-rule="nonzero"/>
  </g>
  <g clip-path="url(#id16)" transform="matrix(1.533927, 0, 0, 1.533927, -69.092941, 22.3218)" style="">
    <path fill="#686d6a" d="M 265.4375 240.285156 L 267.925781 240.285156 L 267.925781 254.441406 L 265.4375 254.441406 Z M 265.4375 240.285156 " fill-opacity="1" fill-rule="nonzero"/>
  </g>
  <g clip-path="url(#id17)" transform="matrix(1.533927, 0, 0, 1.533927, -69.092941, 22.3218)" style="">
    <path fill="#686d6a" d="M 286.371094 248.820312 L 283.921875 243.160156 L 281.492188 248.820312 Z M 282.808594 240.1875 L 285.117188 240.1875 L 291.351562 254.441406 L 288.71875 254.441406 L 287.28125 251.023438 L 280.582031 251.023438 L 279.125 254.441406 L 276.574219 254.441406 Z M 282.808594 240.1875 " fill-opacity="1" fill-rule="nonzero"/>
  </g>
  <g clip-path="url(#id18)" transform="matrix(1.533927, 0, 0, 1.533927, -69.092941, 22.3218)" style="">
    <path fill="#686d6a" d="M 299.839844 247.304688 C 301.621094 247.304688 302.753906 246.375 302.753906 244.9375 L 302.753906 244.898438 C 302.753906 243.382812 301.660156 242.550781 299.816406 242.550781 L 296.195312 242.550781 L 296.195312 247.304688 Z M 293.707031 240.285156 L 300.019531 240.285156 C 303.015625 240.285156 305.285156 241.792969 305.285156 244.753906 C 305.226562 244.910156 305.578125 248.035156 301.902344 249.085938 L 305.730469 254.441406 L 302.792969 254.441406 L 299.3125 249.507812 C 299.039062 249.507812 296.035156 249.507812 296.195312 249.507812 L 296.195312 254.441406 L 293.707031 254.441406 Z M 293.707031 240.285156 " fill-opacity="1" fill-rule="nonzero"/>
  </g>
  <g clip-path="url(#id19)" transform="matrix(1.533927, 0, 0, 1.533927, -69.092941, 22.3218)" style="">
    <path fill="#686d6a" d="M 317.359375 248.820312 L 314.910156 243.160156 L 312.480469 248.820312 Z M 313.796875 240.1875 L 316.105469 240.1875 L 322.339844 254.441406 L 319.707031 254.441406 L 318.269531 251.023438 L 311.570312 251.023438 L 310.113281 254.441406 L 307.5625 254.441406 Z M 313.796875 240.1875 " fill-opacity="1" fill-rule="nonzero"/>
  </g>
  <g clip-path="url(#id20)" transform="matrix(1.533927, 0, 0, 1.533927, -69.092941, 22.3218)" style="">
    <path fill="#686d6a" d="M 331.269531 252.238281 C 332.972656 252.238281 334.003906 251.570312 334.003906 250.296875 L 334.003906 250.257812 C 334.003906 249.066406 333.050781 248.355469 331.089844 248.355469 L 327.140625 248.355469 L 327.140625 252.238281 Z M 330.542969 246.253906 C 332.140625 246.253906 333.214844 245.625 333.214844 244.332031 L 333.214844 244.289062 C 333.214844 243.179688 332.324219 242.492188 330.722656 242.492188 L 327.140625 242.492188 L 327.140625 246.253906 Z M 324.691406 240.285156 L 331.046875 240.285156 C 333.539062 240.285156 335.703125 241.453125 335.703125 243.886719 C 335.644531 244.042969 335.957031 245.898438 333.679688 247.082031 C 335.339844 247.648438 336.492188 248.597656 336.492188 250.519531 L 336.492188 250.558594 C 336.492188 253.089844 334.40625 254.441406 331.25 254.441406 L 324.691406 254.441406 Z M 324.691406 240.285156 " fill-opacity="1" fill-rule="nonzero"/>
  </g>
  <g clip-path="url(#id21)" transform="matrix(1.533927, 0, 0, 1.533927, -69.092941, 22.3218)" style="">
    <path fill="#686d6a" d="M 339.578125 240.285156 L 342.066406 240.285156 L 342.066406 254.441406 L 339.578125 254.441406 Z M 339.578125 240.285156 " fill-opacity="1" fill-rule="nonzero"/>
  </g>
  <g clip-path="url(#id22)" transform="matrix(1.533927, 0, 0, 1.533927, -69.092941, 22.3218)" style="">
    <path fill="#686d6a" d="M 354.242188 248.820312 L 351.792969 243.160156 L 349.363281 248.820312 Z M 350.679688 240.1875 L 352.984375 240.1875 L 359.222656 254.441406 L 356.589844 254.441406 L 355.152344 251.023438 L 348.453125 251.023438 L 346.996094 254.441406 L 344.445312 254.441406 Z M 350.679688 240.1875 " fill-opacity="1" fill-rule="nonzero"/>
  </g>
</svg>